<?xml version="1.0" standalone="no"?>
<!DOCTYPE svg PUBLIC "-//W3C//DTD SVG 20010904//EN"
 "http://www.w3.org/TR/2001/REC-SVG-20010904/DTD/svg10.dtd">
<svg version="1.0" xmlns="http://www.w3.org/2000/svg"
 width="431.000000pt" height="431.000000pt" viewBox="0 0 431.000000 431.000000"
 preserveAspectRatio="xMidYMid meet">
<metadata>
Created by potrace 1.11, written by Peter Selinger 2001-2013
</metadata>
<g transform="translate(0.000000,431.000000) scale(0.100000,-0.100000)"
fill="#000000" stroke="none">
<path d="M1915 4300 c-3 -6 1 -7 9 -4 18 7 21 14 7 14 -6 0 -13 -4 -16 -10z"/>
<path d="M1950 4290 c-4 -8 -5 -21 -2 -29 3 -9 0 -11 -8 -6 -8 5 -11 4 -6 -3
4 -6 13 -9 22 -5 11 4 12 9 3 19 -12 15 -10 16 31 18 18 1 25 -4 24 -17 -1
-10 0 -16 3 -13 3 3 15 0 27 -6 11 -6 18 -7 14 -3 -12 12 12 47 28 41 22 -8
17 2 -7 15 -15 8 -19 8 -15 0 8 -12 -6 -15 -18 -4 -14 14 -88 9 -96 -7z m96
-13 c3 -23 -8 -21 -23 2 -10 16 -9 19 4 17 9 -2 17 -10 19 -19z"/>
<path d="M2105 4280 c0 -14 3 -24 8 -22 4 1 12 2 17 2 6 0 10 4 10 10 0 5 -8
7 -17 3 -10 -3 -15 -3 -11 2 15 16 78 13 88 -4 5 -9 10 -11 10 -6 0 14 40 17
40 4 0 -6 5 -7 10 -4 6 4 7 11 4 17 -4 7 0 7 12 1 22 -11 34 -11 52 0 6 5 13
6 13 3 1 -3 3 -10 4 -16 1 -5 3 -15 4 -21 0 -5 6 -7 12 -3 6 3 7 9 3 13 -5 3
-10 12 -12 20 -2 9 3 11 15 7 12 -5 15 -4 8 3 -13 13 -97 22 -89 10 7 -12 -3
-11 -28 2 -15 8 -19 8 -14 0 8 -12 -6 -15 -18 -4 -3 4 -32 7 -64 8 -55 0 -58
-1 -57 -25z m121 8 c3 -4 -1 -5 -10 -4 -8 1 -18 5 -22 8 -3 4 1 5 10 4 8 -1
18 -5 22 -8z m99 3 c-9 -8 -36 -10 -30 -2 2 4 11 8 20 8 8 0 13 -3 10 -6z"/>
<path d="M2433 4295 c0 -8 4 -12 9 -9 5 3 6 10 3 15 -9 13 -12 11 -12 -6z"/>
<path d="M1906 4268 c3 -5 10 -6 15 -3 13 9 11 12 -6 12 -8 0 -12 -4 -9 -9z"/>
<path d="M1973 4257 c1 -16 3 -16 13 -3 6 9 14 13 17 9 4 -3 7 -1 7 5 0 6 -9
10 -19 9 -12 -1 -19 -8 -18 -20z"/>
<path d="M2069 4270 c-1 -5 -2 -15 -3 -22 -1 -14 -36 -20 -36 -5 0 8 -4 7 -12
-1 -7 -7 -17 -12 -22 -12 -6 0 -4 5 4 10 8 5 10 10 4 10 -6 0 -14 -3 -18 -7
-3 -4 -14 -8 -24 -9 -52 -9 -66 -8 -70 5 -3 9 0 11 9 6 8 -5 10 -4 6 0 -12 13
-36 15 -44 3 -3 -7 -1 -8 5 -4 7 4 12 3 12 -2 0 -15 -17 -17 -147 -17 -92 0
-123 -3 -123 -12 0 -7 -4 -13 -9 -13 -5 0 -11 -9 -14 -21 -5 -17 -9 -19 -25
-10 -15 8 -21 7 -25 -4 -4 -10 -1 -12 11 -8 9 3 14 3 10 -1 -13 -15 -58 -14
-58 1 0 8 5 11 12 7 7 -5 8 -3 3 5 -5 9 -11 8 -24 -6 -12 -13 -31 -18 -64 -18
-38 1 -47 -3 -56 -22 -6 -13 -15 -23 -21 -23 -7 0 -4 7 4 16 24 23 19 31 -15
26 -21 -3 -29 -9 -25 -19 3 -8 2 -11 -4 -8 -5 3 -8 -7 -7 -22 2 -27 1 -27 -63
-31 -36 -2 -66 -7 -68 -13 -2 -5 -8 -9 -13 -9 -6 0 -7 5 -4 10 3 6 2 10 -3 10
-5 0 -12 -13 -14 -30 -3 -17 0 -30 6 -30 6 0 5 -5 -2 -12 -10 -10 -17 -10 -32
0 -12 7 -21 8 -25 2 -4 -6 -11 -8 -16 -5 -9 6 -11 -5 -12 -56 -1 -22 -5 -25
-36 -26 -20 0 -56 -1 -82 -2 l-45 -1 2 -40 1 -40 -44 0 c-37 0 -44 -3 -41 -17
2 -10 -5 -24 -17 -31 -15 -10 -15 -12 -2 -8 11 3 17 0 17 -9 0 -10 -11 -14
-35 -13 -19 1 -40 -4 -48 -10 -8 -7 -17 -9 -21 -5 -4 4 -4 0 0 -10 3 -9 10
-17 15 -17 5 0 9 -10 8 -22 0 -22 -1 -22 -9 -3 -7 17 -9 17 -9 3 -1 -14 -8
-17 -31 -14 -20 2 -30 -1 -30 -10 0 -17 -12 -18 -30 -1 -12 10 -12 9 -3 -3 6
-8 10 -26 8 -40 -1 -19 -7 -25 -25 -25 -13 0 -25 -6 -28 -13 -2 -7 -9 -9 -15
-5 -9 5 -9 3 -1 -8 6 -8 11 -25 12 -38 1 -19 -3 -22 -23 -19 -13 3 -26 1 -29
-4 -2 -5 -3 -3 -2 4 2 7 10 12 19 12 9 -1 13 4 10 12 -3 8 -9 12 -13 9 -5 -3
-11 4 -15 15 -3 11 -11 20 -16 20 -5 0 -3 -11 6 -24 14 -21 14 -25 0 -36 -9
-8 -15 -29 -15 -56 0 -23 -4 -46 -10 -49 -5 -3 -10 -1 -10 5 0 8 -6 8 -20 0
-15 -8 -20 -8 -20 2 0 7 -3 8 -9 3 -5 -6 -11 -35 -13 -65 -2 -34 -9 -60 -18
-67 -8 -6 -12 -15 -7 -19 4 -4 7 -2 7 4 0 7 5 12 12 12 9 0 9 -3 0 -12 -7 -7
-27 -13 -45 -13 -31 0 -32 -1 -32 -42 0 -48 -9 -61 -29 -44 -10 8 -16 9 -21 1
-3 -6 -10 -8 -15 -5 -7 4 -11 -38 -11 -127 0 -9 -7 -22 -16 -29 -13 -12 -13
-14 4 -21 16 -7 16 -8 -2 -5 -11 2 -19 9 -17 15 4 23 -19 12 -28 -13 -5 -14
-13 -25 -17 -25 -5 0 -8 -24 -8 -53 1 -31 -5 -59 -14 -70 -8 -9 -11 -20 -8
-24 4 -3 7 -1 7 5 0 7 5 12 10 12 7 0 7 -6 0 -20 -8 -15 -8 -20 2 -20 10 0 10
-3 -1 -9 -8 -6 -11 -16 -7 -27 6 -16 5 -16 -15 2 -12 10 -20 14 -16 8 4 -7 -2
-10 -16 -7 -21 4 -22 1 -22 -56 0 -34 4 -61 8 -61 5 0 5 -6 0 -12 -4 -7 -8
-50 -9 -96 0 -45 -4 -85 -7 -89 -10 -10 -8 -25 2 -18 6 3 7 -6 2 -22 -4 -16
-6 -38 -5 -50 1 -20 -1 -21 -20 -11 -18 9 -19 9 -9 -3 11 -13 13 -19 13 -36 0
-5 4 -2 9 5 7 11 9 10 14 -3 4 -9 3 -14 -1 -11 -10 6 -9 -195 1 -211 4 -6 3
-14 -2 -17 -11 -7 -9 -25 3 -45 6 -9 5 -12 0 -8 -6 3 -10 -11 -10 -33 0 -25 3
-37 10 -32 6 3 4 -5 -6 -19 -15 -24 -15 -26 0 -37 15 -11 14 -12 -5 -7 -13 4
-23 2 -23 -4 0 -6 3 -10 8 -10 19 3 23 -2 12 -16 -11 -13 -10 -14 2 -10 16 6
19 -20 5 -42 -4 -6 -4 -14 1 -17 4 -2 7 -36 7 -75 -1 -38 2 -68 6 -66 3 3 4
-7 1 -21 -3 -16 1 -29 9 -34 14 -10 39 5 39 23 0 7 -4 7 -12 -1 -15 -15 -28
-15 -28 0 0 6 3 8 7 5 3 -4 16 1 27 10 12 10 18 14 14 9 -4 -5 -3 -15 2 -21 7
-9 6 -14 -4 -18 -8 -3 -13 -16 -12 -30 2 -14 -2 -24 -10 -24 -6 0 -10 6 -7 13
6 17 -16 29 -30 15 -8 -8 -6 -11 7 -11 15 0 16 -3 6 -15 -7 -9 -10 -18 -6 -22
3 -3 6 -2 6 3 0 6 14 10 32 10 l32 -1 0 -116 c1 -109 2 -116 21 -116 66 -1 66
-2 67 -130 0 -34 4 -36 50 -33 26 1 28 -1 28 -42 0 -88 1 -88 30 -67 13 10 13
10 -1 6 -9 -3 -16 0 -16 6 0 7 13 12 28 12 15 1 25 -3 23 -7 -3 -4 0 -8 5 -8
12 0 10 -28 -3 -49 -6 -8 -5 -12 0 -8 5 3 14 -6 21 -19 6 -13 7 -22 2 -18 -5
3 -9 -8 -9 -23 0 -27 2 -28 39 -25 l40 4 3 -49 3 -48 38 3 37 4 0 -41 c0 -39
13 -61 25 -41 4 7 12 7 24 0 10 -5 21 -6 25 -3 3 3 6 -5 6 -19 0 -32 -9 -41
-29 -25 -14 11 -14 10 -2 -5 7 -10 17 -16 21 -13 4 3 10 -1 13 -9 4 -10 17
-13 41 -9 l36 5 0 -41 c0 -32 4 -41 18 -42 71 -4 67 -2 66 -42 -1 -21 3 -37
10 -38 6 -1 26 -1 44 -1 24 -1 32 -5 30 -17 -2 -9 3 -15 10 -13 9 1 8 -5 -4
-23 -15 -23 -15 -25 0 -25 10 0 15 4 11 9 -3 5 -1 13 5 16 6 4 9 1 8 -6 -2 -7
6 -13 19 -14 27 0 69 -45 66 -70 -3 -19 -3 -19 6 0 6 15 3 25 -10 38 -24 22
-24 22 5 23 18 1 23 -2 19 -15 -3 -12 0 -11 12 4 l17 20 -2 -20 c-1 -11 -2
-32 -1 -47 1 -24 4 -26 39 -24 42 3 62 -2 62 -16 0 -5 -4 -7 -9 -3 -5 3 -12 1
-15 -4 -4 -5 -2 -12 3 -16 6 -3 8 -12 5 -19 -3 -7 2 -16 10 -19 9 -4 16 -2 16
2 0 10 18 9 35 0 6 -3 30 -5 54 -4 30 1 45 -3 49 -14 4 -12 7 -11 14 5 6 16 7
15 5 -6 -1 -14 -7 -24 -13 -23 -6 1 -11 -4 -11 -12 0 -10 5 -10 22 3 13 9 20
23 18 29 -3 7 0 13 6 13 6 0 11 -4 11 -10 0 -5 8 -10 18 -10 14 0 15 -2 2 -10
-11 -7 -11 -10 -2 -10 7 0 10 -5 7 -10 -5 -8 -11 -7 -21 1 -12 10 -19 8 -37
-11 l-22 -22 26 16 c23 15 28 15 39 1 7 -8 27 -14 49 -13 126 4 199 -11 174
-36 -9 -9 -23 -7 -20 2 1 4 -2 7 -8 7 -5 0 -11 -8 -12 -18 -3 -15 2 -17 19
-12 21 5 21 5 -2 -9 -29 -18 -19 -21 12 -5 16 8 23 8 30 -2 7 -10 8 -8 3 6
-12 35 -10 58 5 62 13 4 13 3 0 -6 -10 -7 -11 -11 -3 -11 7 0 10 -6 7 -14 -6
-16 26 -17 39 -1 5 6 7 4 4 -5 -2 -8 -11 -14 -21 -12 -9 2 -16 -3 -16 -11 0
-16 32 -19 42 -3 5 6 8 7 8 1 0 -6 48 -11 117 -13 78 -2 120 -7 125 -15 6 -9
8 -9 8 1 0 15 166 17 175 2 3 -5 12 -10 18 -10 8 0 7 4 -2 9 -9 6 67 10 195
11 278 3 280 3 276 20 -2 13 0 13 10 0 19 -23 85 -22 91 2 3 12 1 16 -6 12 -9
-5 -9 -4 0 6 6 7 9 19 6 26 -3 9 2 14 16 14 12 0 21 -5 21 -11 0 -5 -4 -8 -9
-5 -4 3 -8 -5 -7 -17 1 -15 8 -22 23 -23 12 -1 20 3 17 7 -3 5 0 9 7 9 7 0 10
3 7 6 -4 3 -16 1 -27 -6 -15 -7 -21 -7 -21 0 0 6 7 13 15 16 8 4 12 10 9 15
-4 7 68 13 102 8 4 0 11 5 15 13 5 7 9 8 9 3 0 -6 13 -11 28 -11 26 -1 29 2
30 34 1 19 3 36 4 38 2 1 39 5 83 9 44 3 85 7 92 7 6 1 8 8 5 17 -5 14 -3 14
11 2 9 -7 14 -18 11 -23 -5 -7 -1 -7 11 0 10 5 20 17 21 26 1 9 -2 13 -9 9 -6
-4 -8 0 -4 10 4 11 2 14 -7 11 -8 -3 -17 -1 -21 5 -4 7 6 12 27 13 57 3 63 4
77 12 10 6 12 5 7 -2 -4 -7 -2 -10 7 -7 9 4 12 16 9 36 -3 20 0 34 9 40 21 13
41 11 33 -3 -6 -9 -3 -9 9 0 9 8 21 11 27 7 11 -7 12 -4 14 38 1 16 8 32 15
37 17 10 41 2 41 -12 0 -6 -6 -5 -15 2 -14 12 -17 8 -14 -16 0 -4 -5 -11 -13
-15 -10 -7 -10 -9 2 -9 12 0 12 -2 1 -9 -9 -6 -5 -8 13 -8 15 0 31 7 36 17 8
15 6 17 -10 13 -11 -3 -17 -10 -13 -17 3 -6 2 -7 -2 -3 -16 14 -14 39 2 33 9
-4 17 1 20 14 4 16 14 20 48 20 l42 0 0 38 c-1 37 -1 37 42 40 30 2 41 7 38
16 -3 8 0 19 6 25 7 7 7 11 1 11 -6 0 -11 7 -11 15 0 11 12 15 44 15 43 0 43
0 44 38 1 20 1 39 1 42 0 3 16 6 36 5 36 0 37 1 42 40 5 40 6 41 43 40 37 -1
37 -1 39 39 1 23 2 49 2 58 0 9 3 15 7 12 4 -2 10 0 13 5 3 5 -1 12 -10 15
-23 9 -9 21 27 22 21 1 26 -2 19 -11 -6 -8 -6 -15 2 -23 9 -9 9 -12 0 -12 -7
0 -12 5 -12 12 0 18 -23 -8 -26 -29 -3 -17 -2 -17 10 -1 8 10 17 13 27 8 15
-9 18 4 21 107 1 30 5 40 15 36 8 -3 13 2 14 13 0 15 2 16 7 4 8 -18 32 -25
32 -9 0 5 4 8 9 4 6 -3 9 4 8 15 -1 11 -6 20 -12 20 -6 0 -7 3 0 8 6 4 10 14
10 22 0 8 7 15 15 14 10 -1 16 8 17 20 1 12 -1 15 -4 9 -9 -24 -24 -13 -21 14
4 33 36 44 54 18 14 -19 14 -18 14 61 0 18 7 37 15 44 8 7 15 18 15 24 0 6 -5
4 -10 -4 -15 -23 -12 4 3 34 8 14 17 23 21 19 4 -4 12 -1 17 7 8 11 9 7 6 -15
-2 -16 -2 -24 0 -17 3 7 8 10 12 7 10 -5 6 39 -5 56 -4 8 -3 9 4 5 7 -4 12 -2
12 3 0 6 -5 11 -12 11 -9 0 -9 3 0 12 7 7 12 36 12 66 0 43 3 53 15 49 8 -4
17 -1 21 5 4 7 3 8 -4 4 -7 -4 -12 -2 -12 4 0 6 -4 8 -10 5 -6 -4 -9 5 -8 19
1 14 9 28 17 31 11 5 10 8 -5 21 -18 14 -18 15 4 4 19 -9 21 -14 11 -31 -17
-32 -3 -34 15 -2 9 15 15 21 14 13 -2 -8 2 -15 7 -15 11 0 18 35 7 36 -22 2
-45 8 -50 14 -4 3 9 3 27 0 30 -5 33 -4 21 10 -7 8 -8 15 -2 15 6 0 10 90 11
257 1 141 4 259 6 263 3 4 18 6 35 5 17 -1 32 1 35 5 2 4 -14 6 -36 5 -38 -2
-40 0 -37 24 2 15 8 25 16 23 8 -1 11 2 7 8 -3 6 -11 8 -16 5 -7 -5 -15 178
-11 273 1 14 -3 20 -10 16 -7 -5 -8 -3 -2 7 5 8 9 31 10 52 1 34 -1 37 -27 37
-21 0 -27 -4 -23 -15 3 -8 11 -13 16 -12 6 1 14 -10 19 -26 4 -16 4 -25 -2
-21 -5 3 -9 14 -9 25 0 11 -4 18 -9 14 -13 -7 -34 32 -37 68 -2 17 2 27 11 27
8 0 17 5 21 11 4 8 0 9 -15 4 -22 -7 -22 -11 -24 141 -1 22 -6 30 -19 31 -12
1 -16 -3 -11 -10 5 -9 2 -8 -9 0 -8 7 -19 9 -23 5 -5 -4 -5 -1 -1 6 4 6 3 12
-1 12 -5 0 -10 11 -11 25 -1 18 2 23 13 19 8 -4 15 -1 15 5 0 6 -3 10 -7 10
-26 -4 -31 4 -28 41 4 43 -10 58 -50 55 -26 -2 -32 37 -10 55 11 9 15 9 15 1
0 -6 -4 -11 -9 -11 -11 0 -8 -26 4 -37 4 -4 5 -2 1 5 -9 14 10 17 19 2 8 -13
25 -3 25 13 0 8 -3 8 -9 -2 -5 -8 -11 -9 -15 -3 -4 6 1 15 10 20 23 13 8 33
-21 28 -14 -3 -28 -7 -33 -10 -4 -2 -8 16 -7 42 l0 47 -40 5 c-39 5 -40 6 -41
43 -3 81 -4 87 -19 87 -8 0 -15 4 -15 9 0 5 10 7 23 4 18 -4 19 -3 6 6 -10 6
-30 9 -47 7 -29 -3 -30 -2 -28 40 1 46 0 47 -49 48 -23 1 -30 6 -31 22 -2 44
-14 75 -27 67 -7 -4 -22 -8 -34 -9 -21 -1 -23 4 -23 43 l0 43 -40 0 -40 0 0
40 0 40 -40 0 c-41 0 -43 2 -42 53 1 26 -2 27 -44 27 -37 0 -45 3 -43 18 4 44
-1 63 -18 61 -46 -4 -72 2 -76 19 -4 14 -5 15 -6 1 -1 -12 -10 -16 -31 -15
-33 1 -36 6 -18 24 9 9 9 12 0 12 -7 0 -12 5 -12 11 0 5 4 7 10 4 18 -11 50
-14 50 -4 0 5 -6 9 -12 8 -27 -3 -39 1 -32 13 4 6 3 8 -4 4 -6 -3 -13 -3 -16
2 -2 4 -22 7 -43 6 -21 0 -44 3 -50 9 -9 6 -13 5 -13 -4 0 -11 -2 -11 -9 0 -7
11 -13 12 -23 3 -11 -9 -14 -7 -15 9 -1 10 3 19 8 19 6 0 8 4 4 9 -3 5 0 13 6
17 7 4 9 3 6 -3 -4 -6 0 -14 9 -17 12 -5 15 -2 10 9 -3 9 -2 14 2 11 4 -2 14
-1 22 4 9 5 -2 8 -28 6 -24 -2 -45 0 -47 4 -3 4 -19 6 -37 4 -18 -2 -35 1 -39
8 -6 9 -11 9 -22 -1 -11 -9 -17 -9 -22 0 -6 8 -10 7 -16 -2 -7 -12 -9 -11 -10
1 -1 8 -1 18 0 23 0 4 -4 7 -11 7 -9 0 -9 3 0 12 17 17 42 19 49 2 3 -8 10
-11 16 -7 6 3 7 1 3 -5 -4 -7 -2 -12 3 -12 16 0 13 19 -4 36 -8 9 -15 13 -15
11 0 -3 -16 -1 -35 3 -23 5 -36 4 -39 -4 -2 -6 -5 -6 -5 -1 -1 6 -19 10 -41 9
-23 0 -43 3 -46 8 -3 4 -14 4 -24 -2 -10 -6 -21 -6 -24 -1 -3 4 -20 7 -38 5
-18 -1 -27 0 -20 3 6 2 9 10 5 16 -4 7 1 6 10 -2 10 -8 20 -11 24 -8 3 4 -8
14 -26 24 -17 10 -31 23 -31 28 0 6 -40 10 -100 10 -55 0 -100 4 -100 8 0 4
-8 3 -18 -2 -11 -6 -24 -6 -35 0 -12 7 -17 6 -17 -2 0 -6 -8 -3 -17 8 -10 10
-14 14 -10 7 4 -7 4 -15 -2 -18 -5 -4 -12 -2 -16 4 -4 6 -10 8 -15 5 -12 -8
-33 23 -24 37 6 10 5 10 -7 2 -8 -6 -24 -10 -36 -8 -12 2 -25 -1 -28 -7 -5 -7
-11 -7 -19 1 -10 7 -20 5 -37 -9 -14 -10 -36 -17 -52 -15 -18 2 -25 -1 -21 -8
4 -7 2 -8 -5 -4 -6 4 -8 13 -4 19 4 7 0 6 -10 -2 -9 -7 -17 -10 -17 -6 0 4 -7
2 -15 -5 -10 -9 -15 -9 -15 -1 0 10 14 15 33 12 4 -1 2 8 -5 19 -14 22 -27 26
-29 10z m181 -30 c0 -5 -9 -8 -19 -7 -15 1 -17 4 -9 14 11 13 28 9 28 -7z m43
6 c5 -12 -2 -14 -31 -7 -2 1 0 6 3 11 9 14 22 12 28 -4z m46 -19 c0 -9 -2 -8
-6 1 -2 6 -10 9 -15 6 -7 -4 -8 -2 -4 5 9 13 26 5 25 -12z m352 -60 c-10 -9
-11 -8 -5 6 3 10 9 15 12 12 3 -3 0 -11 -7 -18z m-1078 0 c3 -8 -1 -14 -8 -14
-7 0 -11 6 -8 14 3 7 6 13 8 13 2 0 5 -6 8 -13z m-283 -77 c0 -5 -5 -10 -11
-10 -5 0 -7 5 -4 10 3 6 8 10 11 10 2 0 4 -4 4 -10z m45 0 c-3 -5 -16 -15 -28
-21 -19 -9 -19 -8 3 10 28 23 34 26 25 11z m-180 -60 c-16 -17 -16 -20 -2 -20
9 0 18 -4 21 -9 4 -5 -3 -7 -14 -4 -28 8 -33 19 -14 37 23 23 30 20 9 -4z
m-550 -425 c-1 -14 -5 -28 -8 -31 -5 -5 -3 43 2 54 5 11 9 -3 6 -23z m3221
-248 c1 -9 -2 -15 -7 -11 -5 3 -6 10 -3 16 5 7 0 9 -14 6 -13 -4 -20 -2 -16 3
9 16 37 6 40 -14z m-2192 -202 c-3 -6 5 -11 17 -12 16 -2 18 1 10 11 -9 11 21
13 159 15 l170 2 1 -28 c1 -15 1 -34 0 -40 -1 -7 3 -13 9 -13 6 0 9 -4 5 -9
-3 -5 -1 -13 5 -16 6 -4 9 -1 8 6 -2 8 8 13 27 14 27 0 30 -3 30 -30 0 -16 -7
-36 -15 -43 -13 -10 -13 -12 -1 -10 13 3 15 -97 16 -720 0 -398 -2 -727 -5
-731 -8 -12 -60 -19 -66 -9 -3 5 -12 1 -20 -9 -11 -14 -13 -15 -14 -3 0 13 -1
13 -10 0 -13 -20 -12 -30 1 -30 5 0 8 4 5 9 -7 10 13 9 31 -2 6 -4 13 -2 15 5
2 6 20 13 39 14 19 1 29 0 22 -3 -7 -2 -10 -12 -7 -21 5 -15 4 -15 -9 0 -15
19 -31 13 -20 -6 12 -18 12 -36 0 -36 -5 0 -7 -3 -4 -6 3 -4 2 -15 -3 -25 -7
-12 -18 -16 -35 -13 -16 3 -24 0 -23 -7 2 -6 -3 -13 -10 -14 -7 -2 -8 -1 -2 2
5 2 7 9 4 15 -4 7 -9 6 -14 -1 -3 -7 -14 -9 -24 -5 -12 5 -14 9 -6 14 8 5 8
10 2 14 -14 8 -21 -15 -11 -39 4 -11 8 -14 8 -7 1 7 6 10 13 6 18 -11 58 -13
58 -3 0 5 7 9 16 9 9 0 12 -5 8 -12 -6 -10 -5 -10 8 -1 8 7 18 10 22 6 10 -10
46 -11 46 -1 0 4 5 8 11 8 5 0 7 -4 4 -10 -4 -7 3 -7 19 0 19 7 26 6 26 -3 0
-7 3 -8 8 -2 11 16 46 19 36 3 -6 -10 -5 -11 8 -1 8 7 18 9 22 5 11 -10 78
-10 99 0 12 6 17 5 18 -4 0 -10 2 -10 6 0 2 6 10 9 16 5 17 -10 47 -11 47 -1
0 4 5 8 11 8 5 0 7 -4 4 -10 -4 -7 3 -7 19 0 19 7 26 6 26 -3 0 -7 3 -8 8 -2
11 15 52 18 52 4 0 -7 2 -10 5 -7 10 10 -8 39 -21 34 -15 -6 -38 27 -27 38 3
3 1 6 -5 6 -15 0 -15 -6 -1 -32 9 -16 8 -19 -2 -13 -8 6 -10 4 -4 -6 8 -12 6
-12 -8 0 -11 9 -17 10 -17 2 0 -6 -5 -11 -11 -11 -5 0 -8 4 -5 8 2 4 -4 8 -14
8 -10 0 -16 -4 -14 -8 3 -4 0 -8 -6 -8 -7 0 -9 8 -4 23 6 21 6 21 -15 -3 -13
-14 -20 -20 -17 -14 3 6 -1 11 -9 11 -8 0 -12 -4 -10 -8 3 -4 -6 -6 -20 -4
-14 1 -28 -2 -31 -6 -3 -5 -10 -9 -17 -9 -6 0 -3 6 7 13 16 12 16 14 2 14 -9
0 -16 -3 -16 -7 0 -3 -11 -6 -25 -6 -18 0 -21 3 -14 12 6 8 7 14 0 18 -5 4
-13 -4 -17 -16 l-6 -21 -15 24 c-11 18 -13 19 -9 4 l6 -20 -16 20 c-14 17 -16
17 -10 2 4 -12 2 -16 -6 -11 -7 5 -8 3 -3 -7 8 -12 6 -12 -8 0 -11 9 -17 10
-17 2 0 -6 -5 -11 -11 -11 -5 0 -8 4 -5 8 2 4 -4 8 -14 8 -10 0 -16 -4 -14 -8
3 -4 0 -8 -5 -8 -6 0 -11 5 -11 11 0 8 -6 7 -17 -2 -14 -12 -16 -12 -8 0 6 10
4 12 -4 6 -8 -5 -7 3 3 23 8 16 12 32 9 36 -4 3 -1 6 5 6 7 0 12 -7 12 -16 0
-11 6 -14 20 -9 12 4 20 2 20 -5 0 -6 5 -8 13 -3 20 12 47 14 47 2 0 -5 4 -8
10 -4 5 3 7 12 4 20 -4 8 -10 13 -14 10 -5 -3 -9 355 -10 796 0 649 2 799 12
793 10 -5 11 -4 1 7 -16 17 -17 33 -1 23 19 -12 69 -10 64 2 -2 6 1 17 7 23 8
8 8 11 -2 11 -7 0 -9 5 -6 10 4 6 10 8 15 5 5 -3 12 0 16 6 4 7 3 9 -2 6 -6
-3 -16 -1 -24 4 -10 6 56 9 191 7 201 -2 205 -2 204 -22 -1 -12 2 -24 7 -27 5
-3 3 -9 -5 -12 -12 -4 -15 0 -12 14 3 16 1 19 -13 13 -9 -4 -24 -7 -33 -8 -9
0 -16 -7 -14 -15 1 -11 17 -16 50 -18 27 -2 52 -9 57 -16 4 -6 8 -7 8 -2 0 6
13 11 29 10 17 0 27 -4 23 -10 -4 -5 -7 -21 -7 -35 0 -22 5 -25 36 -26 19 0
40 -3 45 -6 5 -2 26 -4 47 -3 34 1 37 -1 37 -27 0 -16 5 -28 13 -28 8 0 7 -3
-3 -10 -8 -5 -12 -12 -8 -15 7 -7 48 34 48 49 0 6 -5 5 -12 -2 -15 -15 -28
-15 -28 -1 0 5 5 7 10 4 6 -3 13 1 16 9 3 9 10 16 16 16 5 0 6 -4 3 -10 -3 -5
-1 -10 6 -10 7 0 5 -8 -6 -20 -10 -11 -15 -23 -11 -27 10 -10 367 -11 388 -1
10 5 20 4 24 -3 4 -7 10 -7 16 -1 6 6 18 8 27 5 14 -4 14 -3 1 6 -8 6 -13 11
-10 12 3 0 15 2 27 5 12 2 25 -1 28 -6 3 -6 12 -10 18 -10 7 0 4 5 -5 11 -22
12 -23 29 -3 29 8 0 15 6 15 14 0 19 68 16 80 -4 12 -19 13 -33 1 -26 -4 3 -6
-11 -4 -31 7 -68 8 -333 1 -333 -4 0 -5 -6 -2 -13 8 -22 10 -227 2 -227 -4 0
-5 -6 -2 -13 8 -23 10 -227 1 -227 -5 0 -5 -5 -1 -11 5 -9 6 -232 1 -634 -1
-80 -1 -80 -28 -80 -15 -1 -25 3 -23 7 5 8 -5 11 -38 11 -10 0 -15 3 -12 8 3
5 -2 6 -11 3 -14 -6 -14 -8 2 -21 16 -13 16 -13 -5 -3 -35 17 -64 21 -56 8 4
-7 3 -8 -4 -4 -6 4 -9 13 -6 20 3 8 1 17 -5 21 -7 3 -8 0 -5 -9 4 -10 1 -16
-7 -16 -8 0 -5 -6 7 -15 17 -15 16 -15 -11 -2 -16 8 -38 13 -48 12 -9 -2 -15
1 -12 6 4 5 -1 6 -10 3 -14 -6 -14 -8 2 -21 16 -13 16 -13 -5 -3 -35 17 -64
21 -56 8 4 -7 3 -8 -4 -4 -6 4 -9 13 -6 20 3 8 1 17 -5 21 -7 4 -8 0 -4 -11 5
-14 3 -16 -11 -11 -9 4 -15 3 -11 -2 3 -5 -2 -8 -11 -7 -18 3 -35 26 -28 38 3
4 0 8 -5 8 -14 0 -14 -6 0 -32 9 -16 8 -19 -2 -13 -8 6 -10 4 -4 -6 8 -12 6
-12 -8 0 -11 9 -17 10 -17 2 0 -6 -5 -11 -11 -11 -5 0 -8 4 -5 8 2 4 -4 8 -14
8 -10 0 -16 -4 -14 -8 3 -4 0 -8 -6 -8 -7 0 -9 8 -4 23 6 21 6 21 -15 -3 -13
-14 -20 -20 -17 -14 3 6 -1 11 -9 11 -8 0 -12 -4 -10 -8 3 -4 -6 -6 -20 -4
-14 1 -28 -2 -31 -6 -3 -5 -10 -9 -17 -9 -6 0 -3 6 7 13 16 12 16 14 2 14 -9
0 -16 -3 -16 -7 0 -3 -11 -6 -25 -6 -18 0 -21 3 -14 12 6 8 7 14 0 18 -5 4
-13 -3 -16 -15 -4 -12 -10 -18 -14 -13 -9 14 -52 14 -44 0 4 -6 -1 -5 -10 3
-11 9 -17 10 -17 2 0 -6 -5 -11 -11 -11 -5 0 -8 4 -5 8 2 4 -4 8 -14 8 -10 0
-16 -4 -14 -8 3 -4 0 -8 -5 -8 -6 0 -11 5 -11 11 0 8 -6 7 -17 -2 -9 -8 -14
-9 -11 -4 4 6 -9 11 -32 11 -22 1 -38 -3 -37 -9 1 -5 -4 -11 -11 -12 -7 -2 -8
-1 -2 2 5 2 7 9 4 15 -4 7 -9 6 -14 -1 -3 -7 -14 -9 -24 -5 -12 5 -14 9 -6 14
8 5 8 10 2 14 -14 8 -21 -15 -11 -39 4 -11 8 -14 8 -7 1 7 6 10 13 6 18 -11
58 -13 58 -3 0 5 7 9 16 9 9 0 12 -5 8 -12 -6 -10 -5 -10 8 -1 8 7 18 10 22 6
10 -10 46 -11 46 -1 0 4 5 8 11 8 5 0 7 -4 4 -10 -4 -7 3 -7 19 0 19 7 26 6
26 -3 0 -7 3 -8 8 -2 11 16 46 19 36 3 -6 -10 -5 -11 8 -1 8 7 18 9 22 5 11
-10 78 -10 99 0 12 6 17 5 18 -4 0 -10 2 -10 6 0 2 6 10 9 16 5 17 -10 47 -11
47 -1 0 4 5 8 11 8 5 0 7 -4 4 -10 -4 -7 3 -7 19 0 19 7 26 6 26 -3 0 -8 4 -7
10 3 5 8 10 12 10 8 0 -4 12 -3 27 3 18 7 30 6 37 -1 8 -8 6 -9 -6 -5 -10 4
-18 3 -18 -2 0 -5 11 -9 24 -9 14 0 23 3 20 7 -2 4 5 7 16 6 11 -1 20 -4 20
-7 0 -3 11 -6 24 -6 14 0 23 3 20 7 -2 4 5 7 16 6 11 -1 20 -4 20 -7 0 -3 11
-6 24 -6 14 0 23 3 20 7 -2 4 5 7 16 6 11 -1 20 -4 20 -7 0 -3 11 -6 24 -6 14
0 22 4 20 8 -3 4 -1 8 5 8 5 0 12 -4 16 -9 3 -6 15 -8 26 -6 39 8 44 -2 41
-83 -3 -105 -7 -150 -12 -154 -3 -2 -4 -1 -3 1 5 7 -19 31 -30 31 -7 0 -7 -4
1 -12 7 -7 12 -17 12 -22 0 -6 -5 -4 -10 4 -6 10 -10 11 -10 3 0 -13 -26 -13
-47 0 -7 5 -13 4 -13 0 0 -11 -211 -10 -227 0 -7 5 -13 4 -13 -1 0 -4 -18 -8
-40 -8 -22 0 -40 4 -40 9 0 4 -6 5 -12 0 -18 -11 -68 -11 -68 -1 0 5 -6 6 -12
1 -18 -11 -68 -11 -68 -1 0 5 -6 6 -12 1 -18 -11 -68 -11 -68 -1 0 5 -6 6 -12
1 -18 -11 -68 -11 -68 -1 0 5 -6 6 -12 1 -18 -11 -68 -11 -68 -1 0 5 -6 6 -12
1 -18 -11 -68 -11 -68 -1 0 5 -6 6 -12 1 -18 -11 -68 -11 -68 -1 0 5 -6 6 -12
1 -18 -11 -68 -11 -68 -1 0 5 -6 6 -12 1 -18 -11 -68 -11 -68 -1 0 5 -6 6 -12
1 -18 -11 -68 -11 -68 -1 0 5 -6 6 -12 1 -18 -11 -68 -11 -68 -1 0 5 -6 6 -12
1 -18 -11 -68 -11 -68 -1 0 5 -6 6 -12 1 -18 -11 -68 -11 -68 -1 0 5 -6 6 -12
1 -18 -11 -68 -11 -68 -1 0 5 -6 6 -12 1 -18 -11 -68 -11 -68 0 0 5 -6 5 -13
-1 -14 -12 -35 -11 -54 1 -7 5 -13 4 -13 0 0 -11 -211 -10 -227 0 -7 5 -13 4
-13 0 0 -5 -33 -8 -74 -8 -41 0 -72 3 -69 7 2 5 -1 8 -6 8 -6 0 -11 -6 -11
-12 0 -9 -4 -8 -10 2 -6 10 -10 11 -10 3 0 -13 -26 -13 -47 0 -7 5 -13 4 -13
0 0 -11 -211 -10 -227 0 -7 5 -13 4 -13 0 0 -5 -33 -8 -74 -8 -41 0 -72 3 -69
7 2 5 -1 8 -6 8 -6 0 -11 -6 -11 -12 0 -9 -4 -8 -10 2 -6 10 -10 11 -10 3 0
-13 -26 -13 -47 0 -7 5 -13 4 -13 0 0 -5 -31 -8 -70 -9 -53 0 -71 4 -76 16 -5
12 -8 12 -15 -5 -9 -18 -9 -18 -5 2 2 13 0 23 -4 23 -5 0 -7 9 -5 20 2 11 1
22 -3 24 -4 3 -7 25 -5 50 2 28 -2 46 -8 46 -6 0 -9 -6 -6 -14 3 -8 -5 -26
-18 -40 -18 -20 -20 -26 -8 -30 8 -3 12 -2 9 2 -2 4 2 15 9 25 11 16 12 14 11
-17 0 -19 -5 -38 -9 -42 -4 -5 -5 -1 -2 8 5 14 2 16 -16 13 -27 -5 -42 3 -32
18 14 22 14 49 1 41 -9 -5 -9 -2 1 9 11 14 11 17 0 17 -9 0 -10 3 -4 8 14 10
18 42 5 42 -5 0 -10 4 -10 9 0 6 9 8 20 6 11 -2 20 1 20 6 0 6 5 7 10 4 6 -4
8 -16 4 -27 -4 -15 -3 -18 6 -13 9 5 11 4 6 -3 -4 -7 -2 -12 4 -12 6 0 8 11 6
25 -3 14 0 25 5 25 6 0 8 4 4 9 -3 5 0 13 5 16 7 5 5 12 -7 21 -13 11 -14 13
-2 9 10 -4 16 0 16 10 0 8 -5 15 -11 15 -6 1 0 7 14 16 22 13 22 14 3 9 -12
-3 -24 -1 -28 4 -3 7 0 8 9 5 11 -4 14 0 11 14 -4 22 15 23 54 2 13 -7 21 -7
21 -1 0 15 -34 31 -64 31 -26 0 -30 7 -27 43 1 9 -3 17 -9 17 -10 0 -8 -25 5
-65 5 -14 2 -13 -8 4 -8 13 -16 19 -18 12 -3 -8 -11 -7 -27 4 -17 13 -20 20
-13 34 7 12 6 22 -2 31 -10 10 -9 11 2 5 10 -6 13 -4 8 7 -3 9 0 21 6 27 8 8
8 14 0 22 -6 6 -9 18 -6 27 5 11 3 13 -7 7 -10 -6 -11 -4 -4 6 11 18 12 41 1
56 -4 6 -3 14 3 18 8 5 8 10 0 20 -8 9 -8 15 0 20 5 3 10 11 10 16 0 6 -4 7
-10 4 -6 -3 -7 1 -4 9 3 9 12 16 20 16 8 0 14 4 14 9 0 6 -9 8 -20 6 -17 -3
-19 -1 -10 15 7 13 7 21 -1 26 -8 4 -8 9 0 17 7 7 7 14 0 23 -7 8 -7 14 1 19
5 3 10 11 10 16 0 6 -4 7 -10 4 -6 -3 -7 1 -4 9 3 9 12 16 20 16 8 0 14 4 14
9 0 6 -9 8 -20 6 -17 -3 -19 -1 -10 15 7 13 7 21 -1 26 -8 4 -8 9 0 17 7 7 7
14 0 23 -7 8 -7 14 1 19 5 3 10 11 10 16 0 6 -4 7 -10 4 -6 -3 -7 1 -4 9 3 9
12 16 20 16 8 0 14 4 14 9 0 6 -9 8 -20 6 -17 -3 -19 -1 -10 15 7 13 7 21 -1
26 -8 4 -8 9 0 17 7 7 7 14 0 23 -7 8 -7 14 1 19 5 3 10 11 10 16 0 6 -4 7
-10 4 -6 -3 -7 1 -4 9 3 9 12 16 20 16 8 0 14 4 14 9 0 6 -9 8 -19 6 -14 -3
-18 1 -14 12 4 10 8 11 13 3 5 -8 9 -7 13 4 6 15 -4 21 -27 17 -5 -1 -4 4 3
13 8 10 9 16 1 21 -7 4 -7 12 0 26 8 14 7 19 -2 19 -9 0 -10 3 -2 8 14 9 14
42 0 42 -6 0 -5 4 3 9 9 6 10 11 2 15 -8 5 -8 13 -1 27 8 14 7 19 -2 20 -10 0
-10 2 0 6 6 2 9 10 6 15 -4 6 -2 8 4 4 6 -3 13 -2 17 4 6 9 -8 15 -29 11 -5
-1 -4 4 3 13 8 10 9 16 1 21 -6 4 -7 12 0 24 6 12 5 22 -3 31 -10 10 -9 11 2
5 10 -6 13 -4 8 7 -3 9 0 21 6 27 8 8 8 14 0 22 -6 6 -9 18 -6 27 5 11 3 13
-7 7 -10 -6 -11 -4 -4 6 14 24 16 51 2 43 -9 -5 -9 -2 1 9 11 14 11 17 0 17
-9 0 -10 3 -4 8 16 11 19 46 3 36 -11 -6 -11 -5 0 8 10 12 10 18 1 24 -8 4 -4
11 12 20 13 7 28 9 34 5 5 -4 51 -7 100 -6 l90 0 1 -35 c0 -19 -1 -29 -3 -22
-3 6 -8 10 -13 7 -4 -3 -7 3 -6 12 0 10 -3 18 -9 18 -5 0 -15 4 -22 8 -6 4
-14 3 -18 -3 -5 -9 16 -15 38 -11 5 1 7 -4 4 -11 -5 -14 -9 -14 -42 -3 -15 5
-16 4 -6 -3 8 -6 11 -17 8 -27 -4 -9 -3 -14 3 -10 20 12 59 15 65 5 10 -16 25
-2 19 18 -2 9 1 7 7 -5 9 -18 16 -20 35 -13 13 5 24 6 24 2 0 -6 132 -6 395
-1 11 0 15 3 10 7 -6 4 -11 21 -12 37 -1 30 0 31 43 30 25 -1 47 2 49 6 3 4
14 5 24 2 10 -3 22 1 27 8 5 9 2 10 -12 5 -16 -6 -17 -5 -6 6 11 11 16 10 26
-4 16 -22 26 -23 26 -3 0 8 -5 15 -11 15 -8 0 -7 5 2 16 11 13 9 14 -13 9 -14
-4 -29 -2 -32 3 -3 5 4 10 17 11 48 1 105 9 114 14 6 4 9 19 8 34 -1 15 2 31
7 34 15 10 36 6 32 -6z m-1388 -4 c-3 -5 1 -12 10 -15 8 -3 13 -10 10 -15 -4
-5 2 -11 11 -14 10 -2 3 -4 -14 -4 -30 0 -31 1 -15 14 16 14 16 14 -1 9 -11
-3 -16 -2 -12 4 3 6 0 10 -7 10 -9 0 -9 3 2 10 19 12 23 12 16 1z m3764 5 c0
-2 -7 -9 -15 -16 -13 -11 -14 -10 -9 4 5 14 24 23 24 12z m-1400 -46 c0 -5 -2
-10 -4 -10 -3 0 -8 5 -11 10 -3 6 -1 10 4 10 6 0 11 -4 11 -10z m-1160 -60 c0
-5 -2 -10 -4 -10 -3 0 -8 5 -11 10 -3 6 -1 10 4 10 6 0 11 -4 11 -10z m-160
-54 c-3 -4 6 -14 20 -21 14 -8 19 -14 12 -15 -7 0 -11 -4 -8 -9 4 -5 0 -11 -6
-14 -18 -5 -48 3 -48 14 0 11 22 7 31 -4 3 -5 9 -1 12 8 4 9 3 13 -3 10 -6 -3
-10 -1 -10 4 0 6 -5 10 -11 9 -6 -2 -13 4 -14 13 -2 11 3 16 14 15 9 -2 14 -6
11 -10z m1687 -1 c0 -8 -4 -12 -9 -9 -5 3 -6 10 -3 15 9 13 12 11 12 -6z m452
-12 c-13 -10 -33 -19 -43 -21 -11 -1 -24 -8 -28 -15 -5 -8 -8 -8 -8 -1 0 6 10
19 23 28 12 9 15 14 7 10 -10 -5 -12 -4 -5 4 9 10 65 21 74 14 3 -1 -6 -10
-20 -19z m-2104 7 c3 -5 1 -10 -4 -10 -6 0 -11 5 -11 10 0 6 2 10 4 10 3 0 8
-4 11 -10z m2005 6 c0 -2 -7 -7 -16 -10 -8 -3 -12 -2 -9 4 6 10 25 14 25 6z
m-2404 -23 c-3 -20 -22 -28 -31 -14 -4 7 0 8 10 5 9 -4 15 -3 14 2 -2 13 0 24
5 24 2 0 3 -8 2 -17z m-766 -18 c-10 -12 -10 -15 0 -15 8 0 11 -3 7 -6 -14
-14 -26 7 -15 26 7 11 14 17 17 15 2 -3 -2 -11 -9 -20z m3174 17 c3 -5 -1 -9
-9 -9 -8 0 -12 4 -9 9 3 4 7 8 9 8 2 0 6 -4 9 -8z m-356 -16 c-7 -8 -15 -12
-17 -11 -5 6 10 25 20 25 5 0 4 -6 -3 -14z m-2784 -11 c-4 -8 -8 -15 -10 -15
-2 0 -4 7 -4 15 0 8 4 15 10 15 5 0 7 -7 4 -15z m3121 -3 c-3 -3 -11 0 -18 7
-9 10 -8 11 6 5 10 -3 15 -9 12 -12z m-2685 -152 c0 -5 -4 -10 -10 -10 -5 0
-10 5 -10 10 0 6 5 10 10 10 6 0 10 -4 10 -10z m-522 -73 c2 -10 -1 -17 -7
-17 -6 0 -7 7 -4 17 4 9 2 14 -3 10 -6 -3 -16 -1 -24 4 -11 7 -8 8 10 6 14 -2
26 -11 28 -20z m-23 -27 c3 -5 1 -10 -4 -10 -6 0 -11 5 -11 10 0 6 2 10 4 10
3 0 8 -4 11 -10z m4043 -65 c-3 -3 -9 2 -12 12 -6 14 -5 15 5 6 7 -7 10 -15 7
-18z m15 -20 c-3 -9 -8 -14 -10 -11 -3 3 -2 9 2 15 9 16 15 13 8 -4z m14 -907
c-3 -8 -6 -5 -6 6 -1 11 2 17 5 13 3 -3 4 -12 1 -19z m-27 2 c0 -5 -5 -10 -11
-10 -5 0 -7 5 -4 10 3 6 8 10 11 10 2 0 4 -4 4 -10z m-3500 -30 c0 -5 -4 -10
-10 -10 -5 0 -10 5 -10 10 0 6 5 10 10 10 6 0 10 -4 10 -10z m31 -173 c-10 -9
-11 -8 -5 6 3 10 9 15 12 12 3 -3 0 -11 -7 -18z m-15 -67 c0 -12 -4 -16 -9
-11 -5 5 -6 14 -3 20 10 15 12 14 12 -9z m3414 4 c0 -8 -19 -13 -24 -6 -3 5 1
9 9 9 8 0 15 -2 15 -3z m-3866 -66 c-3 -5 -10 -6 -15 -3 -5 4 -9 2 -9 -3 0
-17 13 -22 29 -10 13 10 14 10 4 -2 -7 -8 -13 -18 -13 -23 0 -4 6 -5 13 -1 6
4 8 3 4 -1 -13 -15 -36 -14 -30 1 3 10 0 12 -10 8 -8 -3 -18 -1 -21 4 -11 18
4 38 29 38 13 0 21 -4 19 -8z m3396 2 c0 -5 -5 -10 -11 -10 -5 0 -7 5 -4 10 3
6 8 10 11 10 2 0 4 -4 4 -10z m450 0 c0 -5 -5 -10 -11 -10 -5 0 -7 5 -4 10 3
6 8 10 11 10 2 0 4 -4 4 -10z m-3786 -214 c-10 -8 -21 -12 -23 -10 -3 2 4 11
15 18 10 8 21 12 23 10 3 -2 -4 -11 -15 -18z m167 -213 c13 -16 12 -17 -3 -4
-10 7 -18 15 -18 17 0 8 8 3 21 -13z m3024 -412 c3 -5 2 -12 -3 -15 -5 -3 -9
1 -9 9 0 17 3 19 12 6z m-2279 -213 c-1 -7 -6 -19 -10 -27 -7 -11 -5 -13 7 -8
11 4 15 0 14 -13 -1 -12 -5 -16 -12 -11 -5 5 -21 7 -35 5 -14 -1 -19 0 -12 3
10 4 9 9 -5 20 -10 8 -13 12 -6 9 6 -4 17 2 23 11 9 15 10 14 4 -7 -6 -22 -5
-23 9 -11 9 7 16 16 15 19 -1 11 2 22 6 22 2 0 3 -6 2 -12z m1949 -57 c-8 -7
-61 45 -58 56 3 7 17 -2 33 -20 16 -18 27 -34 25 -36z m-51 14 c-4 -8 -8 -15
-10 -15 -2 0 -4 7 -4 15 0 8 4 15 10 15 5 0 7 -7 4 -15z m-193 -68 c-10 -9
-11 -8 -5 6 3 10 9 15 12 12 3 -3 0 -11 -7 -18z m-1247 -55 c3 -5 -1 -9 -9 -9
-8 0 -12 4 -9 9 3 4 7 8 9 8 2 0 6 -4 9 -8z m999 -38 c-3 -8 -15 -14 -27 -12
-11 2 -19 7 -18 12 2 5 -2 13 -10 18 -10 8 -10 9 2 5 8 -2 14 -10 13 -16 -2
-6 3 -11 10 -11 25 0 26 12 4 32 l-22 19 27 -16 c17 -10 25 -22 21 -31z m18
29 c13 -16 12 -17 -3 -4 -10 7 -18 15 -18 17 0 8 8 3 21 -13z"/>
<path d="M1649 3153 c-2 -16 -2 -40 0 -51 1 -10 47 -9 57 1 9 9 -16 38 -27 32
-4 -3 -12 3 -18 12 -6 11 -11 13 -12 6z m16 -22 c3 -5 2 -12 -3 -15 -5 -3 -9
1 -9 9 0 17 3 19 12 6z m33 -26 c-3 -3 -9 2 -12 12 -6 14 -5 15 5 6 7 -7 10
-15 7 -18z"/>
<path d="M2609 3148 c10 -14 18 -15 32 -7 23 12 24 16 4 16 -8 0 -15 -5 -15
-10 0 -5 -8 -3 -17 4 -16 13 -17 12 -4 -3z"/>
<path d="M1985 3130 c-3 -6 1 -7 9 -4 18 7 21 14 7 14 -6 0 -13 -4 -16 -10z"/>
<path d="M2070 3055 c0 -5 5 -17 10 -25 5 -8 10 -10 10 -5 0 6 -5 17 -10 25
-5 8 -10 11 -10 5z"/>
<path d="M2052 3026 c7 -8 15 -12 17 -11 5 6 -10 25 -20 25 -5 0 -4 -6 3 -14z"/>
<path d="M680 3000 c-8 -5 -11 -12 -7 -17 5 -4 12 -2 16 6 6 10 10 8 15 -6 9
-21 8 -23 -1 -22 -5 1 -7 5 -6 10 2 4 -5 5 -14 2 -11 -4 -13 -8 -5 -11 10 -3
10 -7 0 -20 -10 -12 -10 -14 0 -8 6 4 12 2 12 -3 0 -6 -6 -11 -12 -11 -9 0 -8
-4 2 -10 13 -9 13 -10 0 -10 -12 0 -12 -2 -1 -9 7 -5 9 -11 4 -14 -11 -7 -10
-57 1 -75 4 -7 4 -17 0 -24 -4 -7 -9 -24 -10 -38 0 -14 -3 -31 -5 -39 -2 -8 4
-17 15 -19 12 -2 16 0 11 7 -3 6 -11 9 -16 6 -5 -3 -6 1 -2 10 5 13 8 14 15 3
5 -8 6 -1 3 20 -5 31 7 43 21 20 5 -7 3 -8 -6 -3 -9 5 -11 4 -6 -3 14 -22 24
-12 24 23 0 19 -5 35 -10 35 -6 0 -8 -6 -5 -13 3 -8 0 -14 -7 -14 -6 0 -12 8
-12 18 0 10 3 17 6 17 20 -2 28 5 32 26 4 18 1 23 -10 18 -11 -4 -13 -2 -6 9
14 22 16 59 3 59 -6 0 -9 -7 -6 -15 4 -8 2 -17 -3 -20 -13 -8 -20 9 -10 25 5
9 4 20 -3 29 -10 12 -9 13 3 6 27 -17 39 -14 33 8 -2 12 -5 28 -5 35 -1 6 -4
10 -6 7 -3 -3 -10 -1 -16 5 -7 5 -18 5 -26 0z m31 -133 c-7 -7 -7 -15 0 -23 7
-9 5 -15 -8 -23 -17 -8 -19 -6 -17 22 2 37 0 34 19 34 11 0 12 -4 6 -10z"/>
<path d="M2893 2975 c0 -8 4 -12 9 -9 5 3 6 10 3 15 -9 13 -12 11 -12 -6z"/>
<path d="M3450 2936 c0 -2 7 -7 16 -10 8 -3 12 -2 9 4 -6 10 -25 14 -25 6z"/>
<path d="M705 2707 c3 -33 -5 -46 -23 -41 -14 4 -13 3 1 -6 18 -11 18 -13 1
-31 -9 -10 -14 -19 -10 -19 4 0 2 -9 -4 -19 -5 -11 -6 -22 -2 -25 9 -5 9 -76
1 -105 -2 -8 4 -17 15 -19 12 -2 16 0 11 7 -3 6 -11 9 -16 6 -5 -3 -6 1 -2 10
4 12 8 13 13 5 5 -9 9 -9 14 -1 4 6 2 11 -4 11 -6 0 -8 5 -4 11 5 8 9 8 14 -1
15 -25 -5 -71 -28 -64 -15 5 -15 4 0 -6 10 -6 15 -17 11 -27 -5 -13 -2 -15 13
-10 14 5 12 1 -8 -17 -24 -22 -25 -24 -8 -29 14 -3 17 0 13 12 -4 13 -3 14 5
1 13 -17 5 -33 -13 -26 -18 6 -40 -20 -25 -29 8 -5 8 -10 0 -20 -7 -9 -8 -15
-1 -19 6 -4 7 -14 4 -24 -4 -13 -2 -13 10 3 8 11 13 23 10 28 -2 4 1 15 9 24
11 15 11 16 -7 10 -20 -7 -20 -7 -1 8 11 8 24 15 29 15 4 0 6 14 3 30 -2 17 0
30 5 30 6 0 7 5 4 11 -4 6 -13 8 -19 6 -7 -3 -13 1 -13 8 0 7 6 11 13 8 9 -3
12 5 12 25 -1 16 3 35 7 42 6 9 4 11 -5 5 -9 -5 -10 -2 -5 14 7 23 -4 28 -23
9 -9 -9 -12 -9 -12 0 0 7 4 12 8 12 4 0 8 9 9 21 1 15 -1 18 -11 10 -20 -17
-14 45 6 66 17 16 17 16 13 -5 -2 -12 1 -22 7 -22 5 0 8 7 4 15 -3 8 -1 15 5
15 6 0 7 5 4 11 -4 6 -13 8 -19 6 -7 -3 -13 1 -13 8 0 7 6 11 13 8 8 -3 12 7
12 31 0 19 -6 37 -12 39 -8 3 -12 -3 -11 -16z"/>
<path d="M2888 2685 c-2 -2 -47 -5 -100 -6 -83 -1 -97 -4 -101 -19 -2 -10 -1
-24 4 -31 13 -21 1 -29 -46 -29 -42 0 -64 -18 -49 -41 10 -16 -9 -9 -22 9 -12
15 -15 15 -24 2 -5 -8 -7 -23 -4 -32 3 -12 0 -18 -10 -18 -16 0 -18 -10 -19
-122 -1 -20 -6 -36 -11 -35 -6 1 -10 -4 -8 -11 1 -9 -5 -8 -23 4 -24 16 -37
32 -13 18 6 -4 8 -3 5 4 -11 16 4 44 20 38 9 -4 11 -2 7 6 -4 7 -3 8 4 4 18
-11 14 0 -5 15 -13 11 -15 11 -9 1 6 -9 3 -12 -10 -10 -11 2 -22 6 -25 10 -3
5 -5 -64 -5 -151 0 -88 3 -158 7 -155 4 2 13 -4 18 -13 10 -17 12 -17 26 1 19
25 19 40 1 33 -11 -4 -13 0 -11 15 10 50 28 34 30 -27 1 -25 5 -48 8 -51 4 -4
2 -15 -3 -25 -14 -24 2 -35 56 -38 22 -1 26 -5 22 -26 -7 -37 11 -53 65 -58
26 -2 53 -9 59 -15 18 -18 32 -14 17 5 -13 15 -12 15 9 2 12 -8 18 -15 12 -17
-16 -6 -12 -20 8 -24 14 -3 13 -5 -6 -10 -12 -3 -20 -2 -16 3 3 5 1 9 -5 9 -5
0 -13 -5 -16 -10 -4 -6 -11 -8 -16 -4 -5 3 -7 10 -3 15 3 5 10 7 15 4 5 -4 9
-2 9 3 0 17 -13 22 -28 9 -13 -10 -14 -9 -7 2 5 9 4 12 -2 8 -6 -4 -8 -17 -6
-30 l5 -24 159 0 c132 -1 159 2 159 14 0 9 -5 11 -12 7 -8 -5 -8 -1 1 10 13
15 13 19 0 27 -11 7 -10 9 6 10 93 5 117 11 131 28 9 11 12 12 19 1 5 -9 4
-11 -3 -6 -7 4 -12 2 -12 -3 0 -6 7 -11 15 -11 18 0 20 21 3 39 -10 11 -10 13
0 7 7 -4 12 -1 12 8 0 19 -11 21 -28 4 -7 -7 -12 -8 -12 -2 0 14 40 32 63 28
9 -1 15 2 12 6 -3 5 -1 11 5 15 5 3 10 1 10 -4 0 -6 6 -11 13 -11 8 0 14 12
14 30 0 32 -6 37 -25 18 -9 -9 -12 -9 -12 0 0 7 -4 12 -9 12 -5 0 -8 -11 -7
-25 2 -14 -1 -22 -7 -18 -6 4 -7 1 -2 -8 5 -8 4 -11 0 -7 -5 5 -9 19 -11 33
-3 25 23 41 59 36 17 -2 19 13 19 154 0 176 -1 187 -22 180 -13 -4 -20 -2 -20
6 0 10 -3 10 -12 1 -7 -7 -17 -12 -22 -12 -6 0 0 10 14 21 l25 20 -25 -6 c-14
-3 -20 -3 -15 2 12 9 13 28 3 39 -5 4 -8 25 -8 46 l0 38 -47 1 c-27 1 -62 2
-78 2 -28 0 -31 3 -31 33 0 23 4 30 11 24 7 -6 16 -5 24 3 10 9 11 9 6 -4 -3
-8 2 -22 12 -31 17 -16 18 -14 19 19 1 21 -2 30 -7 22 -4 -7 -5 -17 -2 -23 3
-5 1 -6 -5 -2 -6 4 -9 12 -6 20 4 9 -14 13 -75 13 -44 1 -84 4 -89 7 -5 3 -11
4 -14 1z m-163 -63 c-3 -3 -11 0 -18 7 -9 10 -8 11 6 5 10 -3 15 -9 12 -12z
m-125 -96 c0 -9 -36 0 -43 12 -15 22 3 32 23 12 11 -11 20 -22 20 -24z m-109
-233 c13 -16 12 -17 -3 -4 -10 7 -18 15 -18 17 0 8 8 3 21 -13z m-9 -24 c2 -2
1 -3 -1 -2 -2 2 -9 -2 -16 -7 -8 -7 -12 -5 -12 4 0 12 22 16 29 5z m-15 -54
c0 -8 -4 -12 -9 -9 -5 3 -6 10 -3 15 9 13 12 11 12 -6z m7 -51 c-4 -20 -1 -25
10 -21 10 4 13 1 9 -9 -5 -13 -8 -13 -24 2 -19 17 -21 34 -4 46 14 11 14 11 9
-18z m762 -94 c0 -12 -4 -16 -9 -11 -5 5 -6 14 -3 20 10 15 12 14 12 -9z
m-110 -82 c4 -7 4 -10 -1 -6 -4 4 -14 0 -21 -10 -12 -15 -12 -15 -7 6 6 24 18
29 29 10z m-141 -67 c3 -5 2 -12 -3 -15 -5 -3 -9 1 -9 9 0 17 3 19 12 6z"/>
<path d="M1250 2670 c0 -4 11 -13 25 -20 33 -18 28 -45 -7 -45 -15 -1 -24 3
-22 7 3 4 0 8 -5 8 -6 0 -11 -4 -11 -10 0 -5 -10 -10 -23 -10 -14 0 -24 -6
-24 -15 0 -17 13 -20 20 -5 3 6 4 5 3 -2 -4 -18 -31 -16 -31 2 0 28 -30 16
-31 -12 -1 -16 3 -28 7 -28 5 0 9 5 9 12 0 6 3 8 7 4 5 -4 -1 -14 -11 -22 -13
-9 -19 -26 -20 -54 0 -28 -4 -39 -12 -36 -7 3 -14 0 -17 -7 -2 -6 -6 -1 -9 11
-4 15 -2 22 6 20 6 -2 11 1 11 7 0 5 -5 9 -12 7 -6 -1 -19 8 -27 20 -9 12 -16
18 -16 12 0 -5 5 -15 12 -22 16 -16 20 -50 6 -58 -7 -5 -8 -3 -3 6 5 9 4 11
-4 6 -15 -9 -15 -336 0 -336 6 0 7 6 3 13 -6 8 -3 8 9 -2 9 -7 23 -11 31 -8
21 8 28 -20 8 -29 -9 -4 -20 -6 -24 -6 -5 1 -8 -2 -8 -8 0 -13 17 -13 25 0 9
14 21 12 23 -2 0 -7 2 -35 4 -62 l4 -49 70 -4 c91 -5 100 -8 83 -30 -10 -12
-10 -14 -2 -9 9 5 12 0 10 -16 -2 -20 3 -23 37 -26 29 -3 36 0 31 10 -6 10 -5
11 6 1 7 -7 25 -13 39 -13 14 0 32 6 39 13 9 8 12 8 7 0 -4 -8 16 -11 76 -10
l83 2 -1 38 0 37 43 0 c27 0 43 5 43 12 0 9 3 9 12 0 7 -7 17 -12 22 -12 6 0
1 7 -11 15 -19 13 -25 46 -14 73 0 1 10 -2 20 -8 33 -17 51 -2 51 41 0 21 3
40 8 40 4 1 21 2 37 3 l30 2 1 84 c1 52 -3 88 -10 92 -8 5 -7 8 2 8 7 0 12 14
12 36 0 25 -3 33 -12 28 -9 -5 -9 -2 1 9 7 9 9 17 3 17 -5 0 -15 -7 -22 -15
-7 -8 -18 -15 -24 -15 -6 0 -3 7 6 14 10 7 14 16 10 20 -4 4 -2 7 3 6 23 -5
35 1 35 19 0 13 -7 19 -25 19 -14 0 -25 -5 -25 -10 0 -5 -7 -3 -15 5 -9 9 -15
37 -16 72 -1 31 -6 51 -10 44 -4 -7 -6 -16 -4 -19 2 -3 -11 -6 -29 -6 -31 0
-33 3 -33 32 1 18 5 30 10 27 4 -3 6 -11 3 -19 -3 -7 0 -16 7 -20 7 -4 9 -3 4
1 -4 5 0 16 9 26 12 13 12 19 3 25 -8 4 -10 3 -5 -4 4 -7 3 -12 -3 -12 -5 0
-13 5 -16 10 -3 6 -22 10 -41 10 -26 0 -33 3 -28 13 5 8 2 8 -9 -2 -15 -12
-17 -11 -18 10 -1 13 -1 32 0 41 2 15 -14 17 -163 17 -138 0 -165 -2 -170 -15
-3 -8 -11 -12 -17 -8 -8 4 -7 9 2 15 10 6 7 8 -9 6 -12 0 -22 -4 -22 -7z m366
-42 c3 -4 -1 -5 -10 -4 -8 1 -18 5 -22 8 -3 4 1 5 10 4 8 -1 18 -5 22 -8z
m-405 -81 c-6 -8 -9 -16 -6 -18 2 -3 -5 -5 -16 -5 -19 0 -19 1 3 18 28 21 34
23 19 5z m634 -127 c3 -5 1 -10 -4 -10 -6 0 -11 5 -11 10 0 6 2 10 4 10 3 0 8
-4 11 -10z m-30 -18 c-3 -3 -11 0 -18 7 -9 10 -8 11 6 5 10 -3 15 -9 12 -12z
m40 -212 c3 -4 -8 -16 -23 -26 -26 -17 -27 -17 -12 1 14 17 13 18 -2 12 -10
-3 -20 -1 -24 5 -4 7 -3 8 4 4 7 -4 12 -3 12 1 0 11 38 14 45 3z m2 -52 c2
-18 0 -20 -7 -8 -6 9 -13 11 -17 5 -5 -5 -17 -11 -28 -13 -13 -1 -7 5 15 17
19 11 35 20 35 21 1 0 2 -10 2 -22z m-640 -124 c0 -7 -7 -10 -16 -6 -14 5 -13
3 1 -14 17 -19 16 -20 -10 -19 -17 0 -26 6 -24 14 2 8 -3 18 -10 23 -8 6 -5 7
11 3 13 -4 21 -3 18 2 -3 5 2 9 12 9 10 0 18 -6 18 -12z m148 -73 c3 -5 2 -12
-3 -15 -5 -3 -9 1 -9 9 0 17 3 19 12 6z m243 -16 c-3 -3 -9 2 -12 12 -6 14 -5
15 5 6 7 -7 10 -15 7 -18z m-33 -23 c-11 -9 -15 -11 -8 -3 6 7 9 21 6 30 -5
13 -3 14 8 3 11 -10 10 -15 -6 -30z m-191 10 c3 -5 -1 -9 -9 -9 -8 0 -12 4 -9
9 3 4 7 8 9 8 2 0 6 -4 9 -8z m164 -12 c-7 -10 -14 -17 -17 -15 -4 4 18 35 25
35 2 0 -1 -9 -8 -20z m62 -10 c0 -5 -4 -10 -10 -10 -5 0 -10 5 -10 10 0 6 5
10 10 10 6 0 10 -4 10 -10z"/>
<path d="M1175 1990 c-3 -5 -1 -10 4 -10 6 0 11 5 11 10 0 6 -2 10 -4 10 -3 0
-8 -4 -11 -10z"/>
<path d="M1674 2656 c1 -8 5 -18 8 -22 4 -3 5 1 4 10 -1 8 -5 18 -8 22 -4 3
-5 -1 -4 -10z"/>
<path d="M1240 2641 c14 -11 31 -21 39 -21 18 0 14 4 -29 24 l-35 17 25 -20z"/>
<path d="M3024 2632 c2 -9 12 -17 24 -18 24 -1 20 11 -8 26 -15 8 -18 6 -16
-8z"/>
<path d="M2660 2636 c0 -2 8 -10 18 -17 15 -13 16 -12 3 4 -13 16 -21 21 -21
13z"/>
<path d="M699 2608 c-10 -19 -3 -44 12 -45 11 -1 19 3 19 8 0 6 -4 7 -10 4 -9
-6 -14 8 -11 28 1 6 -7 10 -10 5z"/>
<path d="M1766 2574 c-10 -14 -16 -29 -14 -34 2 -4 11 7 20 26 21 40 17 45 -6
8z"/>
<path d="M2530 2585 c-7 -9 -11 -17 -9 -20 3 -2 10 5 17 15 14 24 10 26 -8 5z"/>
<path d="M715 2540 c-3 -5 -1 -10 4 -10 6 0 11 5 11 10 0 6 -2 10 -4 10 -3 0
-8 -4 -11 -10z"/>
<path d="M1086 2508 c3 -4 9 -8 15 -8 5 0 9 4 9 8 0 5 -7 9 -15 9 -8 0 -12 -4
-9 -9z"/>
<path d="M3193 2503 c0 -14 25 -26 38 -18 5 4 6 -1 3 -9 -3 -9 -11 -13 -17 -9
-6 3 -7 1 -3 -5 10 -17 32 -4 33 19 1 14 -3 19 -12 15 -8 -3 -17 0 -21 6 -4 6
-3 8 2 5 6 -3 16 -2 23 3 9 5 3 7 -16 7 -16 -1 -30 -7 -30 -14z"/>
<path d="M2475 2399 c-3 -4 -2 -14 1 -23 4 -11 9 -12 18 -3 7 6 13 16 13 22 0
13 -25 16 -32 4z"/>
<path d="M715 2301 c3 -5 0 -13 -6 -16 -5 -4 -8 -14 -4 -23 3 -8 0 -19 -7 -23
-7 -4 -9 -11 -5 -16 5 -4 12 -1 17 7 6 9 10 10 10 3 0 -6 -11 -20 -25 -31 -23
-18 -23 -20 -6 -25 15 -3 18 -1 14 12 -4 13 -3 14 5 1 13 -17 5 -33 -13 -26
-18 6 -40 -20 -25 -29 8 -5 8 -10 0 -20 -7 -9 -8 -15 -1 -19 6 -4 7 -14 4 -24
-4 -13 -2 -13 10 3 8 11 13 23 10 28 -2 4 1 15 9 24 11 15 11 16 -7 10 -20 -7
-20 -7 -1 8 11 8 24 15 29 15 4 0 6 14 3 30 -2 17 -1 30 3 30 4 0 8 7 8 15 0
8 -4 12 -8 9 -5 -2 -6 11 -4 31 3 21 1 35 -6 35 -5 0 -8 -4 -4 -9z"/>
<path d="M715 2141 c3 -5 0 -13 -6 -16 -5 -4 -8 -14 -4 -23 3 -8 0 -19 -7 -23
-7 -4 -9 -11 -5 -16 5 -4 12 -1 17 7 6 9 10 10 10 3 0 -6 -11 -20 -25 -31 -23
-18 -23 -20 -6 -25 15 -3 18 -1 14 12 -4 13 -3 14 5 1 13 -17 5 -33 -13 -26
-18 6 -40 -20 -25 -29 8 -5 8 -10 0 -20 -7 -9 -8 -15 -1 -19 6 -4 7 -14 4 -24
-4 -13 -2 -13 10 3 8 11 13 23 10 28 -2 4 1 15 9 24 11 15 11 16 -7 10 -20 -7
-20 -7 -1 8 11 8 24 15 29 15 4 0 6 14 3 30 -2 17 -1 30 3 30 4 0 8 7 8 15 0
8 -4 12 -8 9 -5 -2 -6 11 -4 31 3 21 1 35 -6 35 -5 0 -8 -4 -4 -9z"/>
<path d="M1070 2039 c0 -5 5 -7 10 -4 6 3 10 8 10 11 0 2 -4 4 -10 4 -5 0 -10
-5 -10 -11z"/>
<path d="M1725 2008 c1 -11 10 -25 20 -30 13 -8 16 -7 11 1 -4 6 -2 11 3 11 6
0 11 5 11 12 0 9 -3 9 -12 0 -17 -17 -33 -15 -19 2 9 10 8 15 -2 19 -9 3 -13
-2 -12 -15z"/>
<path d="M2526 2012 c-3 -5 1 -9 9 -9 8 0 12 4 9 9 -3 4 -7 8 -9 8 -2 0 -6 -4
-9 -8z"/>
<path d="M1780 1990 c0 -5 0 -13 1 -16 0 -4 -5 -11 -13 -16 -11 -8 -10 -9 1
-6 13 4 28 48 16 48 -3 0 -5 -4 -5 -10z"/>
<path d="M715 1981 c3 -5 0 -13 -6 -16 -5 -4 -8 -14 -4 -23 3 -8 0 -19 -7 -23
-7 -4 -9 -11 -5 -16 5 -4 12 -1 17 7 6 9 10 10 10 3 0 -6 -11 -20 -25 -31 -23
-18 -23 -20 -6 -25 15 -3 18 -1 14 12 -4 13 -3 14 5 1 13 -17 5 -33 -13 -26
-18 6 -40 -20 -25 -29 8 -5 8 -11 1 -19 -6 -7 -8 -16 -4 -20 4 -4 8 -24 8 -44
0 -20 4 -43 8 -49 5 -7 5 -18 1 -25 -4 -7 -9 -24 -10 -38 0 -14 -3 -32 -5 -40
-3 -10 3 -15 16 -15 14 0 19 6 17 18 -2 9 4 20 12 23 16 6 20 74 4 74 -6 0 -8
-6 -5 -13 3 -8 0 -14 -7 -14 -6 0 -12 8 -12 18 0 10 3 17 6 17 20 -2 28 5 32
26 3 16 1 23 -8 19 -6 -2 -15 1 -20 8 -4 7 -3 10 3 6 6 -4 17 1 24 10 9 11 9
14 2 10 -9 -6 -11 2 -8 28 3 19 1 35 -4 35 -6 0 -8 -12 -5 -27 3 -22 2 -25 -6
-13 -9 12 -10 10 -5 -7 3 -13 2 -23 -3 -23 -12 0 -11 32 2 49 9 12 7 13 -9 8
-20 -7 -20 -7 -1 8 11 8 24 15 29 15 4 0 6 14 3 30 -2 17 -1 30 3 30 4 0 8 7
8 15 0 8 -4 12 -8 9 -5 -2 -6 11 -4 31 3 21 1 35 -6 35 -5 0 -8 -4 -4 -9z
m-12 -248 c18 -21 18 -22 0 -31 -16 -9 -18 -6 -19 24 -1 19 -1 33 0 32 1 -2 9
-13 19 -25z m2 -123 c-9 -10 -14 -23 -11 -28 3 -5 -1 -9 -9 -9 -9 0 -11 5 -6
16 5 9 7 26 6 38 -1 19 1 20 18 12 18 -10 18 -12 2 -29z"/>
<path d="M3075 1929 c-4 -6 -5 -12 -2 -15 2 -3 7 2 10 11 7 17 1 20 -8 4z"/>
<path d="M3026 1914 c-9 -24 -2 -26 12 -4 7 11 8 20 3 20 -5 0 -12 -7 -15 -16z"/>
<path d="M3054 1899 c1 -7 10 -13 19 -15 9 -1 15 2 11 7 -3 5 -9 7 -14 4 -4
-3 -11 0 -13 5 -3 6 -4 5 -3 -1z"/>
<path d="M865 1533 c-5 -12 -9 -14 -12 -5 -8 22 -33 14 -30 -10 1 -16 -3 -22
-13 -19 -8 2 -21 4 -27 4 -7 0 -13 4 -13 9 0 5 -5 6 -11 2 -8 -5 -7 -10 4 -16
9 -5 14 -15 11 -23 -4 -8 -9 -13 -13 -10 -5 2 -7 -8 -6 -23 1 -15 -2 -33 -8
-39 -5 -7 -8 -13 -6 -14 31 -6 38 -6 34 1 -3 5 4 8 15 7 11 -1 20 -4 20 -7 0
-3 11 -6 24 -6 14 0 23 3 20 7 -2 4 5 7 16 6 11 -1 20 -4 20 -7 0 -3 11 -6 24
-6 14 0 22 4 20 8 -3 4 -1 8 5 8 5 0 13 -5 17 -11 4 -8 9 -7 15 2 5 8 9 10 9
4 0 -5 25 -10 55 -10 30 0 55 3 55 8 0 4 5 7 11 7 5 0 7 -4 4 -10 -4 -7 3 -7
19 0 19 7 26 6 26 -3 0 -7 3 -8 8 -2 10 14 46 19 37 6 -3 -6 -2 -11 2 -11 5 0
14 9 21 20 10 17 10 20 -5 17 -10 -1 -24 -7 -32 -11 -9 -6 -12 -5 -8 1 3 5 0
10 -8 10 -8 0 -11 -5 -8 -11 4 -6 0 -5 -9 2 -13 10 -17 10 -20 0 -3 -9 -12 -8
-34 6 -24 16 -26 16 -15 3 7 -9 9 -17 3 -17 -5 0 -13 7 -16 16 -9 23 -8 27 7
21 8 -3 14 1 14 9 0 8 -6 13 -12 10 -7 -2 -19 1 -26 7 -10 10 -11 9 -4 -3 6
-9 2 -7 -7 3 -10 11 -18 15 -18 10 0 -5 6 -15 13 -22 10 -11 9 -12 -2 -6 -10
5 -12 4 -7 -4 4 -6 12 -9 17 -6 5 4 9 3 10 -2 0 -4 2 -16 4 -25 2 -11 -2 -15
-12 -11 -9 4 -11 8 -4 12 6 4 1 12 -12 20 -20 13 -21 13 -8 -2 15 -19 17 -18
-27 -22 -18 -1 -35 1 -37 6 -3 4 -14 6 -25 4 -12 -2 -18 0 -15 5 3 6 -1 7 -10
4 -14 -6 -14 -8 2 -21 16 -13 16 -13 -5 -3 -35 17 -64 21 -56 8 4 -6 3 -8 -3
-5 -6 4 -9 18 -7 32 2 22 0 24 -12 14 -11 -9 -14 -9 -14 0 0 7 -4 9 -10 6 -5
-3 -10 -1 -10 5 0 7 8 9 22 5 17 -6 20 -4 14 11 -6 18 -5 18 9 0 8 -11 15 -16
16 -10 3 42 13 61 24 45 3 -6 1 -11 -5 -11 -6 0 -8 -4 -5 -10 10 -17 21 -11
22 11 1 12 7 27 14 33 8 8 10 5 5 -14 -6 -20 -5 -22 4 -8 7 11 18 15 33 12 12
-3 28 -6 35 -6 6 -1 12 -6 12 -12 0 -6 4 -5 9 3 5 8 7 20 4 28 -4 11 -8 10
-19 -4 -10 -13 -13 -14 -14 -4 0 8 -3 12 -6 9 -3 -4 -19 -2 -35 2 -18 5 -31 5
-35 -2 -4 -7 -9 -6 -14 2 -5 8 -9 6 -15 -7z m-18 -33 c-2 -23 -10 -17 -12 10
-1 10 2 17 6 14 4 -2 7 -13 6 -24z m-27 -23 c0 -2 -8 -3 -18 -3 -10 0 -19 6
-19 13 0 8 6 9 19 2 10 -5 18 -11 18 -12z m3 -40 c4 3 7 1 7 -6 0 -8 -8 -10
-22 -6 -19 5 -18 3 5 -10 36 -21 35 -30 -1 -11 -26 13 -31 13 -47 -2 -13 -12
-15 -13 -9 -2 5 8 9 23 10 33 1 9 2 19 3 22 0 3 11 -1 24 -10 13 -8 27 -12 30
-8z"/>
<path d="M773 1435 c0 -8 4 -12 9 -9 5 3 6 10 3 15 -9 13 -12 11 -12 -6z"/>
<path d="M1012 1540 c3 -8 1 -23 -4 -33 -8 -16 -11 -16 -37 -2 -25 13 -30 13
-35 0 -3 -8 -1 -17 4 -20 6 -4 10 -1 10 4 0 6 5 11 11 11 5 0 8 -4 5 -8 -2 -4
0 -14 6 -22 8 -12 8 -11 3 5 -5 16 -4 17 6 8 10 -10 9 -16 -2 -29 -13 -16 -12
-17 6 -10 14 5 17 4 9 -4 -6 -6 -19 -8 -28 -4 -14 5 -15 9 -4 15 9 6 5 8 -12
7 -23 -3 -25 0 -23 32 2 28 0 31 -8 17 -6 -9 -15 -15 -20 -11 -5 3 -8 0 -7 -8
2 -7 -5 -12 -14 -12 -10 1 -16 -2 -13 -6 3 -4 -2 -10 -10 -14 -8 -3 -12 -11
-10 -19 6 -15 45 -20 45 -6 0 6 -4 8 -8 5 -5 -3 -9 1 -9 9 0 13 4 12 19 -2 10
-9 18 -13 18 -8 0 4 8 1 17 -6 11 -10 14 -10 9 -1 -4 6 -3 12 3 12 5 0 11 -5
13 -12 2 -6 18 -12 36 -13 24 -1 29 1 21 11 -7 8 -7 14 1 19 6 3 8 11 5 16
-12 18 6 29 28 17 12 -7 29 -12 37 -13 8 0 15 -9 15 -20 -1 -23 14 -37 30 -27
15 9 105 10 110 1 3 -4 1 -10 -5 -14 -5 -3 -10 -12 -10 -18 0 -7 4 -6 10 3 9
13 11 13 19 1 7 -10 9 -7 8 12 -1 14 -6 23 -11 19 -5 -3 -6 0 -2 7 4 6 11 9
16 6 4 -3 13 2 20 10 9 11 8 14 -9 12 -12 -1 -21 -4 -21 -7 0 -4 -7 -7 -16 -7
-14 0 -14 2 2 14 10 7 13 13 7 13 -7 0 -15 -5 -18 -10 -4 -7 -13 -6 -27 1 -16
9 -19 8 -13 -3 3 -7 -1 -4 -11 7 -13 15 -15 16 -11 3 3 -9 -1 -22 -9 -29 -8
-7 -14 -8 -13 -3 4 24 -3 26 -16 4 -13 -24 -14 -24 -12 -2 1 12 6 22 12 22 5
0 4 4 -3 9 -11 7 -10 10 3 15 9 3 20 4 24 1 4 -2 8 2 8 10 0 10 -5 11 -19 4
-10 -5 -18 -6 -18 -2 0 4 -4 2 -9 -6 -6 -9 -11 -10 -15 -2 -4 6 -3 11 1 11 12
0 14 38 3 45 -5 3 -9 -3 -9 -12 -1 -39 -5 -53 -13 -53 -4 0 -8 4 -8 9 0 4 -10
8 -22 7 -17 -1 -23 5 -23 21 0 11 -4 25 -9 30 -5 4 -7 2 -4 -7z m-97 -60 c-4
-6 -2 -17 4 -24 8 -9 7 -13 -4 -13 -8 0 -12 4 -9 9 3 4 0 8 -7 8 -8 0 -8 4 1
15 14 17 24 20 15 5z m295 -39 c0 -4 -11 -7 -24 -7 -14 0 -23 3 -21 6 5 9 45
10 45 1z"/>
<path d="M1066 1534 c-5 -14 -9 -15 -15 -5 -6 10 -10 9 -15 -5 -3 -9 -4 -19
-1 -22 3 -3 5 1 5 9 0 11 2 11 10 -1 9 -13 10 -13 10 0 0 12 2 12 9 2 7 -11 9
-11 14 1 3 7 2 19 -3 26 -5 9 -9 8 -14 -5z"/>
<path d="M1261 1528 c-10 -16 -11 -23 -2 -26 6 -2 8 -8 5 -14 -4 -6 -13 -1
-21 13 -8 13 -12 16 -9 6 3 -10 2 -15 -3 -12 -5 3 -13 1 -16 -5 -5 -8 -11 -8
-19 -1 -7 6 -17 7 -22 3 -4 -4 -2 2 6 12 12 16 12 18 1 11 -10 -6 -12 -4 -7 4
6 9 13 8 27 -5 10 -9 19 -12 19 -6 0 6 -8 15 -17 20 -24 12 -85 13 -78 1 4 -5
1 -9 -5 -9 -6 0 -8 -5 -4 -11 3 -6 9 -7 13 -2 9 13 36 9 34 -5 -4 -18 51 -44
65 -30 8 8 15 8 26 -1 11 -9 16 -9 21 0 6 8 10 8 16 -2 5 -9 1 -21 -11 -34
-12 -13 -16 -25 -11 -33 9 -15 61 -24 61 -11 0 5 5 9 11 9 5 0 7 -4 4 -10 -4
-7 3 -7 19 0 19 7 26 6 26 -3 0 -7 3 -8 8 -2 10 14 46 19 37 6 -3 -6 -2 -11 2
-11 5 0 14 9 21 20 10 17 10 20 -5 17 -10 -1 -24 -7 -32 -11 -9 -6 -12 -5 -8
1 3 5 0 10 -8 10 -8 0 -11 -5 -8 -11 4 -6 -1 -5 -10 3 -11 9 -17 10 -17 2 0
-6 -5 -11 -10 -11 -5 0 -9 6 -7 13 1 6 -5 12 -13 12 -8 0 -14 -6 -12 -12 1 -7
-2 -13 -8 -13 -5 0 -10 5 -10 11 0 5 -5 7 -10 4 -6 -4 -7 -12 -4 -18 4 -7 3
-8 -1 -4 -14 12 -15 37 -2 34 7 -1 11 3 10 10 -2 7 6 10 20 7 18 -3 23 1 24
18 2 16 -1 18 -10 9 -16 -16 -40 -14 -34 4 4 8 2 17 -4 20 -5 4 -6 11 -3 17 5
7 2 8 -6 3 -8 -5 -11 -4 -7 1 3 6 2 15 -2 22 -4 7 -11 4 -20 -10z m16 -5 c-4
-3 1 -16 10 -27 10 -12 14 -18 9 -14 -5 4 -16 2 -25 -5 -14 -10 -14 -10 -3 5
9 11 10 18 2 23 -10 6 -5 25 7 25 4 0 3 -3 0 -7z"/>
<path d="M1290 1543 c0 -6 5 -15 10 -18 6 -4 8 -10 5 -15 -3 -5 3 -13 12 -19
13 -7 14 -10 4 -11 -8 0 -11 -3 -8 -6 4 -4 13 -2 20 5 11 9 17 8 27 -4 7 -9 8
-15 2 -15 -6 0 -9 -8 -8 -17 3 -20 46 -26 58 -8 5 6 8 4 8 -5 0 -13 1 -13 10
0 9 13 10 13 10 0 0 -13 1 -13 10 0 9 13 11 13 20 0 6 -9 6 -18 0 -24 -6 -6
-10 -15 -10 -20 0 -6 5 -4 10 4 9 13 11 13 21 0 8 -12 9 -9 4 10 -6 23 -5 24
9 7 15 -19 66 -31 66 -16 0 5 5 9 11 9 5 0 7 -6 3 -12 -5 -9 -2 -9 9 1 9 7 17
9 17 4 0 -5 11 -9 24 -9 14 0 23 3 20 7 -2 4 5 7 16 6 11 -1 20 -4 20 -7 0 -3
11 -6 24 -6 14 0 23 3 20 7 -2 4 5 7 16 6 11 -1 20 -4 20 -7 0 -3 11 -6 24 -6
14 0 23 3 20 7 -2 4 5 7 16 6 11 -1 20 -4 20 -7 0 -3 11 -6 24 -6 14 0 22 4
19 9 -7 12 30 4 39 -8 4 -5 6 3 4 19 -2 15 -9 32 -17 37 -10 6 -6 7 12 5 34
-3 51 -15 42 -29 -5 -8 -2 -8 9 0 8 7 18 10 21 6 4 -3 7 -1 7 6 0 7 5 9 13 4
18 -11 38 -13 31 -2 -3 5 -1 9 4 9 5 0 9 6 9 13 0 6 2 19 4 27 2 9 -3 15 -13
15 -9 0 -20 4 -24 8 -4 4 -13 2 -20 -4 -18 -15 -36 -1 -29 21 3 10 1 22 -6 26
-7 4 -10 2 -7 -7 3 -8 1 -22 -4 -33 -8 -14 -7 -17 4 -11 7 5 10 5 6 0 -4 -4
-3 -15 2 -25 6 -12 5 -17 -5 -17 -7 0 -11 6 -8 13 7 18 -59 58 -68 42 -4 -7
-5 -16 -2 -21 3 -5 9 -3 13 4 7 10 11 10 25 -1 23 -19 13 -34 -23 -35 -17 0
-35 -5 -39 -9 -5 -5 -2 -6 6 -1 9 5 12 4 7 -3 -5 -8 -2 -10 8 -6 9 3 16 1 16
-6 0 -6 6 -8 13 -4 6 4 8 3 4 -2 -10 -11 -58 -14 -51 -3 3 5 -2 6 -11 3 -14
-6 -14 -8 2 -21 16 -13 16 -13 -5 -3 -35 17 -64 21 -56 8 4 -7 3 -8 -4 -4 -6
4 -9 13 -6 20 3 8 1 17 -5 21 -7 3 -8 0 -5 -9 4 -10 1 -16 -7 -16 -8 0 -5 -6
7 -15 17 -15 16 -15 -11 -2 -16 8 -38 13 -48 12 -9 -2 -15 1 -12 6 4 5 -1 6
-10 3 -14 -6 -14 -8 2 -21 16 -13 16 -13 -5 -3 -36 18 -64 21 -56 7 4 -7 3 -8
-2 -4 -5 5 -9 16 -9 25 0 9 -6 16 -12 15 -7 -2 -13 2 -13 7 0 6 -5 10 -11 10
-6 0 -7 -5 -2 -12 14 -23 11 -34 -11 -36 -17 -1 -18 1 -6 9 13 9 13 10 0 6 -8
-2 -14 -10 -13 -16 2 -6 -2 -11 -7 -11 -5 0 -10 5 -10 11 0 5 -5 7 -10 4 -6
-4 -7 -12 -3 -18 4 -7 -1 -6 -10 2 -13 10 -15 17 -6 27 8 10 8 14 0 14 -6 0
-11 -5 -11 -12 0 -6 -7 -3 -15 8 -15 19 -15 19 -9 -1 5 -16 4 -17 -4 -5 -8 10
-8 18 -1 27 13 15 5 29 -24 44 -22 12 -22 12 -3 -10 19 -21 19 -22 1 -39 -10
-9 -15 -11 -11 -4 4 6 2 12 -5 12 -8 0 -8 4 -1 13 7 8 6 18 -4 31 -8 11 -14
15 -14 10 0 -6 6 -16 13 -23 8 -10 8 -12 0 -7 -8 4 -10 -1 -8 -17 4 -20 1 -23
-25 -23 -17 0 -30 3 -30 8 0 4 5 8 10 8 6 0 10 5 10 11 0 5 -4 8 -9 5 -5 -4
-8 2 -6 11 1 10 -1 23 -6 29 -6 8 4 10 34 7 65 -5 67 -6 67 -17 0 -6 4 -5 9 3
5 8 7 20 4 28 -4 11 -8 10 -19 -4 -7 -10 -14 -13 -14 -8 0 13 -88 17 -95 4 -4
-5 -11 -9 -17 -9 -6 0 -6 6 2 15 11 13 10 14 -4 9 -20 -8 -16 -29 7 -29 8 0
19 -4 24 -9 5 -5 2 -6 -6 -1 -10 6 -12 4 -6 -4 6 -10 3 -11 -12 -2 -11 6 -24
7 -28 3 -5 -4 -5 -2 -2 4 4 6 0 20 -8 30 -8 10 -15 14 -15 7z m744 -64 c-3 -5
-1 -16 6 -24 7 -8 7 -15 1 -19 -5 -4 -12 -2 -16 4 -4 7 -12 7 -25 0 -13 -7
-21 -7 -26 2 -4 7 -4 10 1 6 10 -10 45 10 44 25 0 9 -2 9 -6 0 -6 -17 -20 -16
-26 1 -4 10 -1 13 7 10 8 -3 17 0 21 5 3 6 11 9 16 5 5 -3 7 -10 3 -15z m29
-4 c-3 -9 -8 -14 -10 -11 -3 3 -2 9 2 15 9 16 15 13 8 -4z m-433 -45 c0 -5 -5
-10 -11 -10 -5 0 -7 5 -4 10 3 6 8 10 11 10 2 0 4 -4 4 -10z m5 -30 c3 -6 -1
-7 -9 -4 -18 7 -21 14 -7 14 6 0 13 -4 16 -10z"/>
<path d="M1492 1538 c4 -8 2 -21 -2 -29 -5 -7 -5 -18 1 -25 5 -7 8 -18 7 -25
-2 -7 4 -14 12 -15 31 -2 32 -4 19 -21 -13 -16 -12 -17 4 -4 9 7 17 10 17 6 0
-4 7 -2 15 5 8 6 20 8 27 4 10 -6 11 -5 1 7 -6 8 -8 20 -4 27 6 10 16 6 38
-15 33 -30 63 -41 63 -23 0 6 -5 8 -10 5 -6 -4 -9 -1 -8 7 2 7 -5 12 -14 12
-14 -1 -16 2 -7 18 9 16 8 19 -2 13 -8 -6 -10 -4 -4 5 5 8 4 11 -3 6 -6 -4 -9
-14 -6 -24 5 -14 4 -14 -4 -2 -6 8 -8 19 -4 25 3 5 -3 3 -13 -5 -17 -13 -18
-13 -11 0 5 8 -5 0 -22 -17 -30 -32 -50 -44 -37 -23 3 5 -5 21 -20 34 -15 14
-23 30 -19 39 3 8 0 18 -7 23 -8 5 -11 2 -7 -8z m42 -73 c2 -6 -4 -11 -14 -11
-10 0 -16 4 -13 9 2 4 -1 15 -9 24 -12 15 -11 15 9 2 13 -7 24 -18 27 -24z"/>
<path d="M1546 1533 c-5 -13 -9 -14 -15 -4 -6 10 -10 9 -15 -4 -6 -16 17 -44
37 -45 5 0 5 -4 2 -10 -13 -21 8 -9 27 15 11 14 24 23 29 20 5 -4 9 -2 9 4 0
5 -5 13 -10 16 -6 4 -7 11 -4 17 4 7 0 7 -13 -1 -14 -7 -23 -7 -30 0 -7 7 -13
5 -17 -8z m54 -12 c2 -1 -1 -6 -6 -11 -18 -18 -52 -19 -66 -2 -8 10 -9 13 -1
9 6 -4 14 -3 18 3 3 5 16 8 28 6 12 -3 24 -5 27 -5z"/>
<path d="M1546 1512 c-3 -5 1 -9 9 -9 8 0 15 4 15 9 0 4 -4 8 -9 8 -6 0 -12
-4 -15 -8z"/>
<path d="M1665 1533 c-5 -12 -9 -14 -12 -5 -5 13 -33 17 -33 5 0 -5 5 -15 11
-23 9 -12 10 -11 5 5 -5 17 -3 16 13 -5 11 -13 18 -27 16 -31 -3 -3 7 -17 20
-29 14 -13 25 -20 25 -16 0 5 8 2 17 -5 9 -8 14 -9 10 -3 -4 7 0 14 8 17 10 4
12 1 8 -10 -4 -11 -2 -14 8 -11 8 3 13 12 11 22 -4 21 13 21 30 -1 15 -21 48
-29 48 -13 0 6 -5 8 -12 4 -7 -4 -8 -3 -4 5 4 6 0 14 -9 17 -10 4 -14 13 -11
23 4 11 2 10 -9 -3 -8 -11 -15 -15 -15 -10 0 6 -13 10 -30 10 -16 0 -30 -4
-30 -8 0 -5 10 -7 23 -3 20 5 21 5 3 -6 -16 -10 -22 -8 -38 12 -11 15 -16 18
-12 7 7 -20 -4 -23 -26 -7 -13 10 -13 10 1 6 9 -3 16 1 16 9 0 7 -4 11 -8 9
-4 -3 -5 4 -2 15 3 11 10 23 15 26 6 4 8 -3 3 -17 -5 -18 -4 -20 4 -9 6 8 16
15 23 16 20 1 39 -17 31 -30 -3 -6 0 -6 8 2 17 15 4 29 -39 41 -21 6 -34 6
-38 -1 -4 -7 -9 -6 -14 2 -5 8 -9 6 -15 -7z m12 -18 c0 -8 -4 -15 -9 -15 -10
0 -11 14 -1 23 9 10 10 9 10 -8z m47 -63 c3 -5 -1 -9 -9 -9 -8 0 -12 4 -9 9 3
4 7 8 9 8 2 0 6 -4 9 -8z"/>
<path d="M1825 1533 c-5 -12 -9 -14 -12 -5 -3 6 -12 12 -20 12 -10 0 -13 -6
-9 -16 4 -9 2 -22 -4 -29 -12 -15 5 -16 28 -2 11 7 16 3 14 -14 -1 -4 10 -17
24 -30 14 -13 25 -19 23 -14 -1 6 1 18 6 28 6 14 10 15 16 6 6 -10 11 -10 22
0 12 9 16 9 20 -1 4 -9 6 -9 6 -1 1 16 -16 26 -24 13 -5 -8 -11 -7 -21 1 -21
17 1 53 25 39 10 -5 21 -6 25 -3 3 3 6 0 6 -8 0 -12 2 -12 9 0 5 8 7 20 4 28
-4 11 -8 10 -19 -4 -10 -13 -13 -14 -14 -4 0 8 -3 12 -6 9 -3 -4 -19 -2 -35 2
-18 5 -31 5 -35 -2 -4 -7 -9 -6 -14 2 -5 8 -9 6 -15 -7z m57 -7 c7 4 8 2 4 -4
-4 -7 -9 -22 -11 -33 -6 -30 -11 -33 -32 -20 -14 8 -15 11 -3 11 11 0 10 4 -4
15 -17 13 -18 17 -6 28 9 8 11 8 6 0 -3 -6 -2 -14 3 -17 5 -3 12 4 16 17 4 13
8 17 12 9 2 -6 10 -9 15 -6z m-78 -26 c-6 -6 -10 -3 -10 10 0 13 4 16 10 10 7
-7 7 -13 0 -20z"/>
<path d="M1859 1513 c0 -5 -2 -16 -4 -26 -2 -11 -1 -16 3 -13 8 8 14 46 7 46
-3 0 -5 -3 -6 -7z"/>
<path d="M2225 1533 c-12 -27 -12 -36 2 -58 12 -20 13 -23 13 -47 0 -7 5 -5
11 5 8 14 14 16 25 6 7 -6 11 -16 8 -21 -5 -7 30 6 42 16 0 1 8 -5 17 -13 12
-9 21 -10 30 -4 6 6 20 9 30 8 15 -3 16 -1 6 11 -9 12 -9 13 3 9 17 -7 43 19
33 35 -3 5 -16 15 -28 21 -22 12 -22 12 -4 -9 21 -23 15 -45 -9 -35 -9 3 -11
9 -5 17 6 7 4 18 -5 30 -8 11 -14 15 -14 10 0 -6 6 -16 13 -23 8 -10 8 -12 0
-7 -8 4 -10 -1 -7 -18 2 -14 -1 -28 -7 -32 -7 -4 -9 -3 -6 3 4 6 -4 9 -18 7
-14 -1 -25 2 -25 7 0 5 -5 9 -11 9 -5 0 -8 -4 -4 -9 9 -15 -15 -25 -28 -12 -9
9 -8 11 3 6 11 -4 16 1 17 16 2 17 -1 19 -10 10 -17 -17 -40 -14 -33 5 3 8 2
12 -4 9 -5 -3 -7 4 -5 15 3 13 0 18 -7 14 -6 -4 -8 -3 -5 2 3 6 2 16 -2 23 -6
10 -10 8 -16 -6z m12 -10 c-4 -3 -2 -12 4 -20 6 -7 8 -13 5 -13 -4 0 -2 -9 4
-19 7 -15 7 -22 -2 -27 -7 -4 -10 -3 -5 1 4 5 1 18 -6 29 -11 18 -13 31 -8 51
0 3 4 5 8 5 3 0 3 -3 0 -7z"/>
<path d="M2250 1543 c0 -6 5 -15 10 -18 6 -4 8 -11 5 -16 -4 -5 1 -12 10 -15
13 -6 14 -8 3 -15 -9 -6 -9 -9 -1 -9 6 0 15 4 18 10 4 6 18 1 35 -12 34 -25
43 -20 45 25 0 19 5 31 13 30 7 -2 18 -4 24 -5 23 -5 51 -48 40 -61 -6 -7 -8
-17 -4 -23 9 -14 42 -14 42 0 0 6 5 4 10 -4 6 -9 10 -10 10 -3 0 6 -4 15 -10
18 -18 11 -11 22 13 21 12 -1 21 -7 20 -14 -2 -7 2 -12 8 -12 5 0 8 -4 5 -8
-2 -4 4 -8 14 -8 10 0 17 3 14 7 -2 4 3 9 10 12 17 7 39 -16 28 -29 -4 -4 1
-2 11 5 9 7 17 10 17 5 0 -4 5 -3 12 4 14 14 32 16 24 4 -7 -12 57 -9 66 3 13
18 -4 26 -19 8 -8 -10 -11 -12 -7 -4 5 10 3 12 -7 7 -8 -4 -5 0 5 8 11 9 15
16 9 16 -7 0 -14 -4 -17 -8 -6 -11 -36 -9 -55 3 -10 6 -12 4 -7 -6 4 -8 0 -5
-10 6 -11 14 -15 15 -11 4 3 -9 0 -16 -9 -16 -7 0 -11 4 -8 9 7 11 -14 38 -28
38 -6 0 -5 -7 2 -15 10 -12 10 -18 0 -30 -7 -8 -18 -15 -24 -15 -6 0 -4 5 4
10 14 9 7 14 -15 11 -5 -1 -2 5 8 13 15 12 15 14 3 19 -9 4 -18 2 -21 -4 -6
-9 -46 -6 -65 6 -6 4 -8 15 -5 25 3 10 0 22 -6 26 -8 5 -10 2 -7 -8 4 -8 2
-21 -3 -29 -8 -12 -10 -12 -8 1 4 37 -1 44 -16 24 -8 -10 -15 -14 -15 -9 0 13
-88 17 -95 4 -4 -5 -11 -9 -17 -9 -6 0 -6 6 2 15 11 13 10 14 -4 9 -20 -8 -16
-29 7 -29 8 0 19 -4 24 -9 5 -5 2 -6 -6 -1 -10 6 -12 4 -6 -4 6 -10 3 -11 -12
-2 -11 6 -24 7 -28 3 -5 -4 -5 -2 -2 4 4 6 0 20 -8 30 -8 10 -15 14 -15 7z
m108 -30 c-8 -10 -7 -13 3 -14 10 0 10 -2 2 -5 -7 -3 -9 -13 -6 -22 4 -15 3
-15 -6 -2 -6 8 -11 11 -11 7 0 -5 -5 -5 -10 -2 -8 5 -8 11 -1 19 7 8 7 16 1
22 -7 7 -1 10 15 10 19 0 22 -3 13 -13z m120 -50 c-8 -10 -7 -13 3 -13 11 0
11 -2 -1 -9 -20 -13 -34 -2 -19 15 9 11 8 18 -2 31 -13 15 -12 15 8 3 16 -11
19 -17 11 -27z m176 -22 c-8 -8 -34 -10 -38 -2 -3 4 6 7 19 7 14 0 22 -2 19
-5z"/>
<path d="M2510 1543 c-2 -7 -3 -17 -4 -22 0 -5 -5 -13 -9 -18 -5 -4 -8 -3 -7
2 1 6 2 17 1 25 -1 12 -4 11 -12 -3 -6 -10 -9 -21 -6 -23 10 -10 56 -14 62 -5
3 6 12 8 19 5 8 -3 17 0 21 6 4 6 13 2 25 -12 11 -13 19 -19 20 -15 0 4 10 2
23 -5 27 -15 48 -16 65 -4 17 12 52 -21 45 -42 -4 -13 -1 -12 11 3 13 16 15
16 10 3 -5 -14 0 -17 23 -15 15 1 31 7 35 12 5 6 8 4 8 -5 0 -13 1 -13 10 0 8
13 10 13 10 1 0 -11 4 -9 15 5 15 19 15 19 9 -1 -5 -19 -5 -19 6 -2 9 14 15
16 26 6 7 -6 11 -16 8 -21 -4 -6 0 -6 12 0 24 13 36 13 52 0 8 -7 16 -7 25 -1
6 6 20 9 30 8 15 -3 16 -1 6 11 -9 12 -9 13 3 9 17 -7 43 19 33 35 -3 5 -16
15 -28 21 -22 12 -22 12 -4 -9 21 -23 15 -45 -9 -35 -9 3 -11 9 -5 17 6 7 4
18 -5 30 -8 11 -14 15 -14 10 0 -6 6 -16 13 -23 8 -10 8 -12 0 -7 -8 4 -10 -1
-7 -18 2 -14 -1 -28 -7 -32 -7 -4 -9 -3 -6 3 4 6 -4 9 -18 7 -14 -1 -25 2 -25
7 0 5 -5 9 -11 9 -5 0 -8 -4 -4 -9 9 -15 -15 -25 -28 -12 -9 9 -8 11 3 6 11
-4 16 1 17 16 2 17 -1 19 -10 10 -16 -16 -40 -14 -34 4 4 8 2 17 -4 20 -5 4
-6 11 -3 17 4 7 2 8 -5 4 -6 -4 -11 -4 -10 1 5 28 -2 36 -16 17 -19 -25 -19
-38 1 -30 14 5 15 4 5 -8 -9 -11 -9 -16 0 -22 8 -5 10 -3 4 7 -7 12 -5 12 6 1
12 -11 12 -14 -1 -22 -8 -5 -18 -6 -22 -4 -4 3 -8 1 -8 -4 0 -5 -7 -9 -16 -9
-14 0 -14 2 2 14 10 7 13 13 7 13 -7 0 -15 -5 -18 -10 -4 -7 -12 -7 -24 0 -10
5 -21 6 -25 3 -6 -6 -10 12 -7 30 1 5 -4 5 -10 1 -8 -5 -9 -3 -4 5 6 10 3 11
-15 1 -20 -11 -21 -10 -10 9 6 12 13 21 16 21 3 0 2 -6 -2 -12 -6 -10 -5 -10
7 -1 23 19 26 19 48 -1 12 -11 21 -14 21 -8 0 6 -8 15 -17 20 -24 12 -85 13
-78 1 4 -5 1 -9 -5 -9 -6 0 -9 -4 -6 -8 2 -4 1 -14 -3 -21 -6 -9 -11 -10 -15
-2 -4 6 -3 11 1 11 12 0 14 38 3 45 -5 3 -9 -3 -9 -12 -1 -39 -5 -53 -13 -53
-4 0 -8 4 -8 9 0 4 -10 8 -22 7 -17 -1 -23 5 -23 21 0 11 -4 25 -9 30 -5 4 -7
1 -4 -8 4 -9 2 -22 -3 -30 -8 -12 -10 -12 -8 1 1 8 1 22 0 30 -1 12 -4 11 -12
-3 -9 -16 -12 -16 -26 -2 -11 12 -19 13 -28 5 -10 -8 -14 -7 -18 2 -4 10 -6
10 -7 1z m55 -26 c6 -5 2 -6 -9 -3 -11 4 -23 2 -26 -4 -5 -8 -9 -6 -13 5 -4 9
-3 13 2 10 5 -3 13 0 16 6 4 5 10 7 14 2 3 -4 11 -12 16 -16z m195 -47 c6 -11
9 -20 8 -20 -2 0 -11 9 -21 20 -9 11 -13 20 -7 20 5 0 14 -9 20 -20z m50 -29
c0 -4 -6 -8 -13 -8 -8 0 -14 6 -14 13 0 7 6 10 14 7 7 -3 13 -8 13 -12z"/>
<path d="M2666 1534 c-5 -14 -9 -15 -15 -5 -6 10 -10 9 -15 -5 -3 -9 -4 -19
-1 -22 3 -3 5 1 5 9 0 11 2 11 10 -1 9 -13 10 -13 10 0 0 12 2 12 9 2 7 -11 9
-11 14 1 3 7 2 19 -3 26 -5 9 -9 8 -14 -5z"/>
<path d="M2890 1543 c0 -6 5 -15 10 -18 6 -4 8 -11 5 -16 -4 -5 1 -12 10 -15
13 -6 14 -8 3 -15 -9 -6 -9 -9 -1 -9 6 0 15 4 18 10 4 6 18 1 35 -12 34 -25
43 -20 45 25 0 19 5 31 13 30 7 -2 18 -4 24 -5 23 -5 51 -48 40 -61 -6 -7 -8
-17 -4 -23 9 -14 42 -14 42 0 0 6 5 4 10 -4 6 -9 10 -10 10 -3 0 6 -4 15 -10
18 -18 11 -11 22 13 21 12 -1 21 -7 20 -14 -2 -7 2 -12 8 -12 5 0 7 -6 3 -12
-6 -10 -5 -10 8 -1 8 7 18 10 22 6 4 -4 4 0 0 10 -8 22 11 22 28 0 15 -21 48
-29 48 -13 0 6 -5 8 -12 4 -7 -4 -8 -3 -4 5 4 6 0 14 -9 17 -10 4 -14 13 -11
23 4 11 2 10 -9 -3 -8 -11 -15 -14 -15 -7 0 7 -5 9 -12 4 -22 -13 -40 -13 -29
1 8 10 3 12 -22 11 -44 -3 -69 12 -62 35 3 10 0 22 -6 26 -8 5 -10 2 -7 -8 4
-8 2 -21 -3 -29 -8 -12 -10 -12 -8 1 4 37 -1 44 -16 24 -8 -10 -15 -14 -15 -9
0 13 -88 17 -95 4 -4 -5 -11 -9 -17 -9 -6 0 -6 6 2 15 11 13 10 14 -4 9 -20
-8 -16 -29 7 -29 8 0 19 -4 24 -9 5 -5 2 -6 -6 -1 -10 6 -12 4 -6 -4 6 -10 3
-11 -12 -2 -11 6 -24 7 -28 3 -5 -4 -5 -2 -2 4 4 6 0 20 -8 30 -8 10 -15 14
-15 7z m108 -30 c-8 -10 -7 -13 3 -14 10 0 10 -2 2 -5 -7 -3 -9 -13 -6 -22 4
-15 3 -15 -6 -2 -6 8 -11 11 -11 7 0 -5 -5 -5 -10 -2 -8 5 -8 11 -1 19 7 8 7
16 1 22 -7 7 -1 10 15 10 19 0 22 -3 13 -13z m120 -50 c-8 -10 -7 -13 3 -13
11 0 11 -2 -1 -9 -20 -13 -34 -2 -19 15 9 11 8 18 -2 31 -13 15 -12 15 8 3 16
-11 19 -17 11 -27z"/>
<path d="M3150 1543 c-2 -7 -3 -17 -4 -22 0 -5 -5 -13 -9 -18 -5 -4 -8 -3 -7
2 1 6 2 17 1 25 -1 12 -4 11 -12 -3 -14 -25 -6 -31 44 -32 29 -1 41 -6 39 -15
-3 -11 0 -11 12 0 9 7 16 9 16 5 0 -4 7 -2 15 5 13 11 19 7 17 -11 -1 -4 10
-17 23 -29 14 -13 25 -20 25 -16 0 5 8 2 17 -5 9 -8 14 -9 10 -3 -4 7 0 14 8
17 10 4 12 1 8 -10 -4 -11 -2 -14 8 -11 8 3 13 12 11 22 -4 21 13 21 30 -1 15
-21 48 -29 48 -13 0 6 -5 8 -12 4 -7 -4 -8 -3 -4 5 4 6 0 14 -9 17 -10 4 -14
13 -11 23 4 11 2 10 -9 -3 -8 -11 -15 -15 -15 -10 0 6 -13 10 -30 10 -16 0
-30 -4 -30 -8 0 -5 10 -7 23 -3 20 5 21 5 3 -6 -16 -10 -22 -8 -38 12 -11 15
-16 18 -12 7 7 -20 -4 -23 -26 -7 -13 10 -13 10 1 6 9 -3 16 1 16 9 0 7 -4 11
-8 9 -4 -3 -5 4 -2 15 3 11 10 23 15 26 6 4 8 -3 3 -17 -5 -18 -4 -20 4 -9 6
8 16 15 23 16 20 1 39 -17 31 -30 -3 -6 0 -6 8 2 16 15 4 29 -38 41 -21 6 -35
5 -42 -2 -8 -8 -11 -7 -11 3 0 9 -5 8 -15 -6 -8 -11 -15 -14 -15 -6 0 14 -30
17 -30 2 0 -5 5 -9 11 -7 6 1 13 -4 15 -11 1 -7 0 -8 -3 -2 -3 7 -10 4 -19 -7
-12 -15 -13 -15 -8 -2 3 10 0 20 -5 24 -6 3 -9 10 -6 15 6 10 -15 8 -32 -3 -6
-4 -14 -1 -16 5 -4 10 -6 10 -7 1z m48 -24 c9 -13 9 -16 -3 -16 -8 0 -12 4 -9
9 3 4 1 8 -5 8 -5 0 -11 -5 -13 -12 -3 -7 -7 -5 -11 6 -4 9 -3 15 2 11 5 -3
13 0 16 6 4 5 8 9 9 7 1 -2 7 -10 14 -19z m79 -4 c0 -8 -4 -15 -9 -15 -10 0
-11 14 -1 23 9 10 10 9 10 -8z m47 -63 c3 -5 -1 -9 -9 -9 -8 0 -12 4 -9 9 3 4
7 8 9 8 2 0 6 -4 9 -8z"/>
<path d="M3425 1533 c-5 -12 -9 -14 -12 -5 -3 6 -12 12 -20 12 -10 0 -13 -6
-9 -16 4 -9 2 -22 -4 -29 -12 -15 5 -16 28 -2 11 7 16 3 14 -14 -1 -4 10 -17
23 -29 14 -13 25 -20 25 -16 0 5 8 2 17 -5 11 -10 14 -10 9 -1 -11 18 2 15 26
-7 11 -11 25 -18 32 -15 13 5 17 114 4 114 -4 0 -5 8 -1 18 5 14 3 13 -10 -3
-12 -14 -16 -16 -17 -6 0 8 -3 12 -6 9 -3 -4 -19 -2 -35 2 -18 5 -31 5 -35 -2
-4 -7 -9 -6 -14 2 -5 8 -9 6 -15 -7z m75 -11 c14 -1 30 -3 37 -4 7 -1 14 -7
17 -15 4 -10 0 -10 -23 2 -25 13 -30 13 -35 0 -3 -8 -1 -17 4 -20 4 -3 10 1
13 7 6 18 36 -11 42 -40 5 -29 -12 -38 -34 -18 -9 9 -27 14 -40 11 -13 -2 -21
-1 -17 2 4 4 -4 13 -16 20 -15 8 -18 13 -8 13 12 0 10 4 -4 15 -17 13 -18 17
-6 28 9 8 11 8 6 0 -3 -6 -2 -14 3 -17 5 -3 11 4 15 17 3 13 9 18 13 12 5 -5
19 -11 33 -13z m-96 -22 c-6 -6 -10 -3 -10 10 0 13 4 16 10 10 7 -7 7 -13 0
-20z"/>
<path d="M3459 1515 c0 -5 -2 -18 -4 -28 -2 -9 0 -15 5 -12 4 3 10 -2 14 -10
3 -8 11 -12 19 -9 8 3 20 -2 27 -11 7 -8 17 -15 23 -15 6 0 2 7 -9 16 -17 14
-17 15 -1 10 15 -5 16 -3 7 15 -8 15 -15 17 -24 10 -14 -12 -36 4 -32 23 2 6
1 7 -2 2 -2 -4 -8 -2 -13 5 -5 8 -9 10 -10 4z m30 -49 c-3 -3 -11 5 -18 17
-13 21 -12 21 5 5 10 -10 16 -20 13 -22z"/>
<path d="M1220 1532 c0 -5 7 -9 15 -9 8 0 15 4 15 9 0 4 -7 8 -15 8 -8 0 -15
-4 -15 -8z"/>
<path d="M2824 1524 c9 -24 -3 -37 -21 -22 -8 6 -22 13 -30 14 -11 2 -12 -1
-2 -12 6 -8 8 -14 3 -14 -5 -1 2 -7 16 -15 18 -9 29 -10 37 -3 9 7 18 6 30 -3
15 -13 15 -12 0 12 -10 14 -15 34 -11 43 4 11 1 16 -11 16 -12 0 -15 -5 -11
-16z m4 -32 c7 7 12 9 12 6 0 -3 -6 -11 -13 -17 -11 -8 -18 -6 -33 12 -19 22
-19 22 2 5 16 -14 23 -15 32 -6z"/>
<path d="M1384 1506 c1 -6 5 -17 9 -23 5 -7 5 -17 2 -23 -3 -5 -1 -10 4 -10
11 0 14 7 14 35 0 27 -3 32 -17 32 -7 0 -13 -5 -12 -11z"/>
<path d="M1720 1510 c0 -5 0 -13 0 -17 0 -12 24 -10 32 1 13 19 -4 27 -18 9
-13 -16 -14 -16 -8 0 3 9 3 17 0 17 -3 0 -6 -4 -6 -10z"/>
<path d="M3320 1510 c0 -5 0 -13 0 -17 0 -12 24 -10 32 1 13 19 -4 27 -18 9
-13 -16 -14 -16 -8 0 3 9 3 17 0 17 -3 0 -6 -4 -6 -10z"/>
<path d="M930 1468 c0 -4 4 -8 9 -8 6 0 12 4 15 8 3 5 -1 9 -9 9 -8 0 -15 -4
-15 -9z"/>
<path d="M1130 1476 c0 -2 7 -9 15 -16 13 -11 14 -10 9 4 -5 14 -24 23 -24 12z"/>
<path d="M2095 1442 c-3 -3 -5 -10 -5 -16 0 -6 5 -4 10 4 5 8 10 10 10 5 0 -6
9 -11 21 -12 11 -1 19 3 17 9 -4 12 -44 19 -53 10z"/>
<path d="M2164 1438 c-4 -5 -3 -12 0 -15 3 -4 6 0 6 8 0 11 2 12 9 1 7 -11 9
-11 14 0 6 16 -20 21 -29 6z"/>
<path d="M674 1349 c0 -10 4 -15 8 -13 4 3 8 0 8 -5 0 -6 -6 -11 -12 -11 -10
0 -9 -3 1 -9 11 -7 11 -9 0 -14 -12 -5 -12 -6 0 -6 11 -1 11 -4 1 -16 -7 -9
-8 -15 -2 -15 20 0 34 56 19 77 -5 7 -6 16 -3 21 3 5 0 9 -7 9 -7 0 -13 -8
-13 -18z"/>
<path d="M744 1209 c-2 -4 5 -17 15 -30 15 -19 29 -24 72 -25 30 0 62 3 71 8
9 4 19 4 22 -1 5 -7 41 -8 41 -1 0 6 41 8 49 2 16 -10 108 -10 128 0 9 4 19 4
22 0 6 -10 207 -9 223 1 6 4 14 3 17 -2 5 -7 41 -8 41 -1 0 6 41 8 49 2 16
-10 108 -10 128 0 9 4 19 4 22 0 4 -7 196 -9 221 -2 6 1 12 2 15 0 22 -8 50
-8 55 0 4 6 11 8 16 4 19 -11 58 -14 64 -4 4 6 11 8 16 4 19 -11 58 -14 64 -4
4 6 11 8 16 4 19 -11 58 -14 64 -4 4 6 11 8 16 4 19 -11 58 -14 64 -4 4 6 11
8 16 4 19 -11 58 -14 64 -4 4 6 11 8 16 4 19 -11 58 -14 64 -4 4 6 11 8 16 4
19 -11 58 -14 64 -4 4 6 11 8 16 4 19 -11 58 -14 64 -4 4 6 11 8 16 4 19 -11
58 -14 64 -4 4 6 11 8 16 4 19 -11 58 -14 64 -4 4 6 11 8 16 4 19 -11 58 -14
64 -4 4 6 11 8 16 4 19 -11 58 -14 64 -4 4 6 11 8 16 4 19 -11 58 -14 64 -4 4
6 11 8 16 4 19 -11 58 -14 64 -4 4 6 11 8 16 4 19 -11 58 -14 64 -4 4 6 11 8
16 5 18 -12 52 -14 70 -5 10 6 20 6 23 2 6 -10 207 -9 223 1 6 4 14 3 17 -2 7
-11 41 -7 41 5 0 5 4 15 9 22 6 10 11 9 22 -5 10 -13 14 -14 12 -3 -5 24 -22
40 -30 26 -6 -8 -8 -8 -8 1 0 12 -47 12 -68 0 -6 -5 -12 -4 -12 0 0 11 -71 11
-87 0 -7 -5 -13 -4 -13 1 0 11 -110 10 -127 -1 -7 -5 -13 -4 -13 0 0 5 -13 9
-29 9 -23 1 -29 -3 -28 -17 1 -11 6 -19 11 -19 5 0 6 -3 3 -6 -9 -9 -38 16
-32 26 3 5 0 12 -6 16 -8 4 -9 3 -5 -4 4 -7 2 -12 -5 -12 -10 0 -10 -3 -1 -12
15 -15 15 -28 1 -28 -5 0 -7 5 -3 12 5 7 3 8 -6 3 -9 -6 -11 -4 -5 6 6 11 5
12 -6 2 -7 -7 -18 -13 -23 -13 -6 0 0 7 12 16 34 24 27 30 -37 30 -51 0 -59
-3 -58 -18 1 -10 6 -18 11 -18 5 0 6 -3 3 -6 -9 -9 -38 16 -32 26 3 5 0 12 -6
16 -8 4 -9 3 -5 -4 4 -7 2 -12 -5 -12 -10 0 -10 -3 -1 -12 15 -15 15 -28 1
-28 -5 0 -7 5 -3 12 5 7 3 8 -6 3 -9 -6 -11 -4 -5 6 6 11 5 12 -6 2 -7 -7 -18
-13 -23 -13 -6 0 0 7 12 16 34 24 27 30 -37 30 -51 0 -59 -3 -58 -18 1 -10 6
-18 11 -18 5 0 6 -3 3 -6 -9 -9 -38 16 -32 26 3 5 0 12 -6 16 -8 4 -9 3 -5 -4
4 -7 2 -12 -5 -12 -10 0 -10 -3 -1 -12 15 -15 15 -28 1 -28 -5 0 -7 5 -3 12 5
7 3 8 -6 3 -9 -6 -11 -4 -5 6 6 11 5 12 -6 2 -7 -7 -18 -13 -23 -13 -6 0 0 7
12 16 34 24 27 30 -37 30 -51 0 -59 -3 -58 -18 1 -10 6 -18 11 -18 5 0 6 -3 3
-6 -9 -9 -38 16 -32 26 3 5 0 12 -6 16 -8 4 -9 3 -5 -4 4 -7 2 -12 -5 -12 -10
0 -10 -3 -1 -12 15 -15 15 -28 1 -28 -5 0 -7 5 -3 12 5 7 3 8 -6 3 -9 -6 -11
-4 -5 6 6 11 5 12 -6 2 -7 -7 -18 -13 -23 -13 -6 0 0 7 12 16 34 24 27 30 -37
30 -51 0 -59 -3 -58 -18 1 -10 6 -18 11 -18 5 0 6 -3 3 -6 -9 -9 -38 16 -32
26 3 5 0 12 -6 16 -8 4 -9 3 -5 -4 4 -7 2 -12 -5 -12 -10 0 -10 -3 -1 -12 15
-15 15 -28 1 -28 -5 0 -7 5 -3 12 5 7 3 8 -6 3 -9 -6 -11 -4 -5 6 6 11 5 12
-6 2 -7 -7 -18 -13 -23 -13 -6 0 0 7 12 16 34 24 27 30 -37 30 -51 0 -59 -3
-58 -18 1 -10 6 -18 11 -18 5 0 6 -3 3 -6 -9 -9 -38 16 -32 26 3 5 0 12 -6 16
-8 4 -9 3 -5 -4 4 -7 2 -12 -5 -12 -10 0 -10 -3 -1 -12 15 -15 15 -28 1 -28
-5 0 -7 5 -3 12 5 7 3 8 -6 3 -9 -6 -11 -4 -5 6 6 11 5 12 -6 2 -7 -7 -18 -13
-23 -13 -6 0 0 7 12 16 34 24 27 30 -37 30 -51 0 -59 -3 -58 -18 1 -10 6 -18
11 -18 5 0 6 -3 3 -6 -9 -9 -38 16 -32 26 3 5 0 12 -6 16 -8 4 -9 3 -5 -4 4
-7 2 -12 -5 -12 -10 0 -10 -3 -1 -12 15 -15 15 -28 1 -28 -5 0 -7 5 -3 12 5 7
3 8 -6 3 -9 -6 -11 -4 -5 6 6 11 5 12 -6 2 -7 -7 -18 -13 -23 -13 -6 0 0 7 12
16 34 24 27 30 -37 30 -51 0 -59 -3 -58 -18 1 -10 6 -18 11 -18 5 0 6 -3 3 -6
-9 -9 -38 16 -32 26 3 5 0 12 -6 16 -8 4 -9 3 -5 -4 4 -7 2 -12 -5 -12 -10 0
-10 -3 -1 -12 15 -15 15 -28 1 -28 -5 0 -7 5 -3 12 5 7 3 8 -6 3 -9 -6 -11 -4
-5 6 6 11 5 12 -6 2 -7 -7 -18 -13 -23 -13 -6 0 0 7 12 16 12 8 22 19 22 23 0
10 -111 8 -127 -2 -7 -5 -13 -4 -13 0 0 11 -71 11 -87 0 -7 -5 -13 -4 -13 1 0
10 -110 10 -127 -1 -6 -4 -14 -1 -17 5 -5 10 -7 10 -12 0 -5 -10 -9 -10 -22 0
-12 10 -14 10 -8 1 4 -8 2 -13 -4 -13 -6 0 -8 -5 -4 -11 3 -6 9 -7 13 -3 10
14 41 16 41 3 0 -7 -3 -9 -7 -6 -3 4 -16 1 -29 -7 -12 -8 -25 -12 -29 -8 -3 4
-14 7 -23 7 -12 0 -16 7 -15 23 3 24 -7 28 -25 10 -8 -8 -12 -8 -12 -1 0 12
-68 12 -88 0 -6 -5 -12 -4 -12 0 0 11 -71 11 -87 0 -7 -5 -13 -4 -13 1 0 10
-110 10 -127 -1 -6 -4 -14 -1 -17 5 -5 10 -7 10 -12 0 -5 -10 -9 -10 -22 0
-12 10 -14 10 -8 1 4 -8 2 -13 -4 -13 -6 0 -8 -5 -4 -11 3 -6 9 -7 13 -3 10
14 41 16 41 3 0 -7 -3 -9 -7 -6 -3 4 -16 1 -29 -7 -12 -8 -25 -12 -29 -8 -3 4
-14 7 -23 7 -12 0 -16 7 -15 23 3 24 -7 28 -25 10 -8 -8 -12 -8 -12 -1 0 12
-68 12 -88 0 -6 -5 -12 -4 -12 0 0 11 -71 11 -87 0 -20 -12 -15 -26 7 -24 11
1 20 5 20 10 0 5 -8 6 -17 2 -15 -5 -16 -4 -5 7 11 11 16 10 28 -6 8 -11 14
-15 14 -10 0 5 9 10 20 11 11 1 20 -3 20 -9 0 -6 -3 -8 -7 -5 -3 4 -16 1 -29
-7 -12 -8 -25 -12 -29 -8 -3 4 -14 7 -23 7 -11 0 -16 7 -15 22 2 16 -2 21 -18
20 -11 -1 -22 -4 -25 -8z m30 -11 c-3 -5 0 -16 8 -25 9 -12 9 -15 1 -9 -22 12
-34 43 -18 43 8 0 12 -4 9 -9z m212 -1 c10 -10 -26 -35 -45 -32 -9 1 -17 7
-17 13 -3 25 -4 25 -18 7 -13 -18 -51 -32 -40 -14 3 5 9 7 14 4 5 -3 13 3 19
13 7 13 20 18 45 17 19 0 38 -4 42 -8z m29 3 c-4 -6 -1 -19 6 -28 12 -16 12
-16 -5 0 -16 14 -15 38 0 38 3 0 2 -5 -1 -10z m178 -4 c-4 -6 1 -6 13 -2 34
13 53 15 60 5 4 -6 10 -7 17 0 16 12 78 6 87 -9 5 -9 9 -8 13 2 3 9 18 14 40
13 45 -1 56 -11 32 -29 -22 -16 -49 -14 -51 2 -3 25 -4 25 -18 7 -7 -10 -21
-20 -30 -21 -15 -2 -15 0 -4 13 12 15 11 15 -12 3 -27 -15 -92 -21 -84 -8 3 4
1 8 -5 8 -5 0 -12 -4 -15 -9 -8 -13 -71 -7 -72 7 -3 25 -4 25 -18 7 -13 -18
-51 -32 -40 -14 3 5 9 7 14 4 5 -3 13 3 19 13 5 10 21 18 35 18 13 0 22 -4 19
-10z m302 4 c-4 -6 -1 -19 6 -28 12 -16 12 -16 -5 0 -16 14 -15 38 0 38 3 0 2
-5 -1 -10z m178 -4 c-4 -6 1 -6 13 -2 34 13 53 15 60 5 4 -6 10 -7 17 0 16 13
80 6 85 -9 3 -9 6 -9 13 1 4 7 19 14 33 15 15 0 23 -3 19 -9 -4 -7 1 -8 13 -3
33 13 55 15 48 5 -3 -6 -9 -8 -12 -5 -3 3 -11 -3 -19 -14 -15 -21 -57 -22 -59
-2 -3 25 -4 25 -18 7 -7 -10 -21 -20 -30 -21 -15 -2 -15 0 -4 13 12 15 11 15
-12 3 -27 -15 -92 -21 -84 -8 3 4 1 8 -5 8 -5 0 -12 -4 -15 -9 -8 -13 -71 -7
-72 7 -3 25 -4 25 -18 7 -13 -18 -51 -32 -40 -14 3 5 9 7 14 4 5 -3 13 3 19
13 5 10 21 18 35 18 13 0 22 -4 19 -10z m417 -1 c19 11 51 14 44 4 -3 -6 -9
-8 -12 -5 -3 3 -11 -3 -19 -13 -7 -11 -22 -19 -33 -18 -10 1 -17 3 -15 5 2 3
0 13 -6 24 -10 18 -8 18 10 8 12 -6 26 -8 31 -5z m160 0 c19 11 51 14 44 4 -3
-6 -9 -8 -12 -5 -3 3 -11 -3 -19 -13 -7 -11 -22 -19 -33 -18 -10 1 -17 3 -15
5 2 3 0 13 -6 24 -10 18 -8 18 10 8 12 -6 26 -8 31 -5z m160 0 c19 11 51 14
44 4 -3 -6 -9 -8 -12 -5 -3 3 -11 -3 -19 -13 -7 -11 -22 -19 -33 -18 -10 1
-17 3 -15 5 2 3 0 13 -6 24 -10 18 -8 18 10 8 12 -6 26 -8 31 -5z m160 0 c19
11 51 14 44 4 -3 -6 -9 -8 -12 -5 -3 3 -11 -3 -19 -13 -7 -11 -22 -19 -33 -18
-10 1 -17 3 -15 5 2 3 0 13 -6 24 -10 18 -8 18 10 8 12 -6 26 -8 31 -5z m160
0 c19 11 51 14 44 4 -3 -6 -9 -8 -12 -5 -3 3 -11 -3 -19 -13 -7 -11 -22 -19
-33 -18 -10 1 -17 3 -15 5 2 3 0 13 -6 24 -10 18 -8 18 10 8 12 -6 26 -8 31
-5z m160 0 c19 11 51 14 44 4 -3 -6 -9 -8 -12 -5 -3 3 -11 -3 -19 -13 -7 -11
-22 -19 -33 -18 -10 1 -17 3 -15 5 2 3 0 13 -6 24 -10 18 -8 18 10 8 12 -6 26
-8 31 -5z m160 0 c19 11 51 14 44 4 -3 -6 -9 -8 -12 -5 -3 3 -11 -3 -19 -13
-7 -11 -22 -19 -33 -18 -10 1 -17 3 -15 5 2 3 0 13 -6 24 -10 18 -8 18 10 8
12 -6 26 -8 31 -5z m154 2 c3 3 6 0 6 -8 0 -12 2 -12 10 1 5 8 20 15 34 16 15
0 23 -3 19 -9 -4 -7 1 -8 13 -3 34 13 53 15 60 5 4 -6 10 -7 17 0 16 12 78 6
87 -9 5 -9 9 -8 13 3 3 8 16 13 34 11 38 -3 37 -2 24 -17 -6 -8 -8 -16 -5 -20
3 -3 -2 -4 -13 -3 -10 2 -19 8 -19 14 -3 25 -4 25 -18 7 -7 -10 -21 -20 -30
-21 -15 -2 -15 0 -4 13 12 15 11 15 -12 3 -27 -15 -92 -21 -84 -8 3 4 1 8 -5
8 -5 0 -12 -4 -15 -9 -8 -13 -71 -7 -72 7 -3 25 -4 26 -19 5 -8 -12 -24 -21
-35 -20 -10 1 -17 3 -15 5 2 3 0 13 -6 24 -9 17 -8 18 9 9 11 -6 22 -7 26 -4z"/>
<path d="M933 1184 c0 -14 23 -12 37 2 7 7 2 10 -13 10 -13 0 -24 -5 -24 -12z"/>
<path d="M1173 1186 c0 -18 59 -15 64 4 3 9 1 11 -4 5 -12 -15 -33 -17 -47 -6
-9 8 -13 7 -13 -3z"/>
<path d="M1258 1189 c15 -20 64 -18 70 1 3 12 2 13 -6 1 -8 -11 -10 -11 -14 0
-4 11 -8 12 -20 2 -11 -10 -17 -10 -28 0 -12 10 -12 9 -2 -4z"/>
<path d="M1413 1184 c0 -14 23 -12 37 2 7 7 2 10 -13 10 -13 0 -24 -5 -24 -12z"/>
<path d="M1653 1186 c0 -18 59 -15 64 4 3 9 1 11 -4 5 -12 -15 -33 -17 -47 -6
-9 8 -13 7 -13 -3z"/>
<path d="M1738 1189 c15 -20 64 -18 70 1 3 12 2 13 -6 1 -8 -11 -10 -11 -14 0
-4 11 -8 12 -20 2 -11 -10 -17 -10 -28 0 -12 10 -12 9 -2 -4z"/>
<path d="M1893 1187 c0 -16 34 -20 43 -5 4 7 2 8 -5 4 -6 -4 -18 -3 -25 3 -9
8 -13 7 -13 -2z"/>
<path d="M2070 1176 c7 -7 13 -7 20 0 6 6 3 10 -10 10 -13 0 -16 -4 -10 -10z"/>
<path d="M2230 1176 c7 -7 13 -7 20 0 6 6 3 10 -10 10 -13 0 -16 -4 -10 -10z"/>
<path d="M2390 1176 c7 -7 13 -7 20 0 6 6 3 10 -10 10 -13 0 -16 -4 -10 -10z"/>
<path d="M2550 1176 c7 -7 13 -7 20 0 6 6 3 10 -10 10 -13 0 -16 -4 -10 -10z"/>
<path d="M2710 1176 c7 -7 13 -7 20 0 6 6 3 10 -10 10 -13 0 -16 -4 -10 -10z"/>
<path d="M2870 1176 c7 -7 13 -7 20 0 6 6 3 10 -10 10 -13 0 -16 -4 -10 -10z"/>
<path d="M3030 1176 c7 -7 13 -7 20 0 6 6 3 10 -10 10 -13 0 -16 -4 -10 -10z"/>
<path d="M3253 1186 c0 -18 59 -15 64 4 3 9 1 11 -4 5 -12 -15 -33 -17 -47 -6
-9 8 -13 7 -13 -3z"/>
<path d="M3338 1189 c15 -20 64 -18 70 1 3 12 2 13 -6 1 -8 -11 -10 -11 -14 0
-4 11 -8 12 -20 2 -11 -10 -17 -10 -28 0 -12 10 -12 9 -2 -4z"/>
<path d="M3493 1183 c0 -9 4 -10 14 -2 7 6 13 12 13 14 0 1 -6 2 -13 2 -8 0
-14 -6 -14 -14z"/>
<path d="M3187 1179 c7 -7 15 -10 18 -7 3 3 -2 9 -12 12 -14 6 -15 5 -6 -5z"/>
<path d="M1042 1208 c-16 -16 -15 -31 2 -25 7 3 19 1 25 -4 7 -6 8 -5 2 2 -5
6 -7 18 -4 25 6 17 -9 18 -25 2z"/>
<path d="M1522 1208 c-16 -16 -15 -31 2 -25 7 3 19 1 25 -4 7 -6 8 -5 2 2 -5
6 -7 18 -4 25 6 17 -9 18 -25 2z"/>
<path d="M190 1350 c0 -5 5 -10 11 -10 5 0 7 5 4 10 -3 6 -8 10 -11 10 -2 0
-4 -4 -4 -10z"/>
<path d="M2147 4265 c-7 -16 2 -25 24 -22 15 3 19 9 19 29 0 6 -6 3 -14 -8 -8
-10 -18 -16 -22 -11 -4 4 -2 7 4 7 7 0 12 5 12 10 0 15 -17 12 -23 -5z"/>
<path d="M2457 4265 c-4 -8 -3 -16 1 -19 4 -3 9 4 9 15 2 23 -3 25 -10 4z"/>
<path d="M1796 4252 c-3 -5 1 -9 9 -9 8 0 12 4 9 9 -3 4 -7 8 -9 8 -2 0 -6 -4
-9 -8z"/>
<path d="M1550 4219 c0 -4 6 -10 13 -12 6 -3 2 -6 -10 -6 -12 -1 -25 -6 -29
-13 -4 -7 -3 -8 4 -4 6 4 20 3 29 -3 15 -7 21 -4 29 14 10 20 8 24 -12 28 -13
2 -24 1 -24 -4z"/>
<path d="M2745 4219 c4 -6 -3 -7 -21 -3 -19 5 -25 4 -20 -5 4 -6 14 -11 22
-11 8 0 14 -4 14 -10 0 -16 38 -32 46 -18 4 6 3 8 -3 5 -6 -4 -16 0 -23 8 -9
10 -9 15 -1 15 16 0 13 17 -5 24 -9 3 -12 2 -9 -5z"/>
<path d="M1475 4194 c0 -25 10 -23 17 4 3 10 0 19 -6 19 -6 0 -11 -10 -11 -23z"/>
<path d="M2943 4103 c0 -12 3 -20 6 -18 2 3 10 0 17 -6 18 -15 24 3 8 26 -10
13 -14 15 -14 4 0 -12 -2 -12 -10 1 -7 12 -9 10 -7 -7z"/>
<path d="M3146 4025 c-3 -8 -12 -12 -20 -9 -8 3 -16 2 -19 -3 -3 -4 10 -9 28
-9 27 -1 33 2 32 17 -2 23 -13 25 -21 4z"/>
<path d="M984 3946 c1 -25 6 -30 29 -31 15 -1 30 3 34 8 3 6 1 7 -5 3 -11 -6
-16 6 -13 27 1 9 -13 9 -22 0 -4 -3 -2 -11 3 -18 7 -8 5 -12 -4 -12 -15 0 -16
14 -2 35 4 7 16 10 27 7 10 -4 19 -2 19 3 0 4 -15 8 -33 8 -31 -1 -34 -3 -33
-30z"/>
<path d="M835 3881 c-3 -5 -2 -12 3 -15 5 -3 9 1 9 9 0 17 -3 19 -12 6z"/>
<path d="M741 3794 c0 -11 3 -14 6 -6 3 7 2 16 -1 19 -3 4 -6 -2 -5 -13z"/>
<path d="M770 3795 c0 -8 4 -15 10 -15 5 0 7 7 4 15 -4 8 -8 15 -10 15 -2 0
-4 -7 -4 -15z"/>
<path d="M748 3763 c7 -3 16 -2 19 1 4 3 -2 6 -13 5 -11 0 -14 -3 -6 -6z"/>
<path d="M667 3706 c-15 -12 -16 -15 -2 -26 13 -11 14 -10 9 4 -3 9 -1 16 5
16 6 0 11 -5 11 -12 0 -6 3 -9 6 -5 3 3 2 12 -3 20 -7 13 -11 13 -26 3z"/>
<path d="M594 3642 c3 -5 0 -13 -6 -15 -8 -3 -6 -6 5 -6 19 -1 23 14 5 25 -6
4 -8 3 -4 -4z"/>
<path d="M380 3331 c0 -4 -10 -6 -23 -4 -21 4 -23 1 -22 -26 1 -28 14 -56 16
-35 0 5 2 17 4 27 2 10 -1 14 -7 11 -7 -4 -8 -2 -4 4 14 23 26 11 21 -20 l-6
-33 20 29 c11 16 17 35 14 42 -6 16 -13 18 -13 5z"/>
<path d="M3950 3285 c5 -7 8 -14 5 -17 -3 -2 2 -5 10 -5 8 0 15 4 15 9 0 4 -5
8 -11 8 -5 0 -8 4 -5 8 3 5 -1 9 -9 9 -10 0 -12 -4 -5 -12z"/>
<path d="M170 2990 c0 -11 2 -20 4 -20 2 0 6 9 9 20 3 11 1 20 -4 20 -5 0 -9
-9 -9 -20z"/>
<path d="M4103 2974 c-7 -3 -9 -12 -6 -20 8 -20 23 -17 17 4 -5 16 -5 16 9 0
19 -24 30 -23 15 2 -13 21 -15 22 -35 14z"/>
<path d="M100 2816 c0 -2 7 -6 15 -10 8 -3 15 -1 15 4 0 6 -7 10 -15 10 -8 0
-15 -2 -15 -4z"/>
<path d="M95 2791 c-3 -5 -2 -12 3 -15 5 -3 9 1 9 9 0 17 -3 19 -12 6z"/>
<path d="M4180 2730 c-8 -5 -11 -10 -7 -10 4 0 3 -10 -3 -22 -11 -22 -10 -22
4 -4 9 11 16 24 16 29 0 4 5 5 10 2 8 -5 7 -11 -1 -21 -7 -8 -7 -14 -1 -14 12
0 21 21 15 38 -6 14 -13 15 -33 2z"/>
<path d="M26 2471 c-3 -5 2 -8 12 -7 9 0 16 -5 14 -12 -1 -8 2 -11 8 -7 8 5 7
11 -1 21 -13 16 -25 18 -33 5z"/>
<path d="M26 2424 c-3 -9 -10 -12 -16 -9 -5 3 -10 4 -10 1 0 -3 9 -10 20 -16
16 -8 18 -8 14 4 -3 9 2 16 13 18 16 3 16 4 1 10 -10 4 -19 1 -22 -8z"/>
<path d="M4250 2410 c0 -5 5 -10 11 -10 5 0 7 5 4 10 -3 6 -8 10 -11 10 -2 0
-4 -4 -4 -10z"/>
<path d="M54 2402 c3 -5 -4 -16 -15 -25 -18 -16 -23 -14 -20 6 1 5 -4 5 -10 2
-8 -5 -8 -10 0 -18 12 -12 15 -31 3 -24 -4 3 -7 -17 -7 -43 0 -26 3 -46 7 -43
5 2 8 -1 8 -6 0 -6 -4 -11 -9 -11 -5 0 -7 -12 -5 -27 7 -36 12 -43 28 -37 8 3
16 1 20 -4 3 -5 -7 -8 -22 -7 -27 1 -28 0 -26 -45 1 -54 9 -71 28 -64 8 3 16
1 20 -4 3 -5 -7 -8 -22 -7 -26 1 -28 0 -27 -46 0 -26 2 -47 5 -46 3 1 5 -2 5
-8 0 -5 -4 -9 -10 -8 -6 2 0 -4 12 -13 18 -13 20 -20 13 -34 -7 -13 -6 -21 2
-26 7 -4 10 -4 6 1 -4 4 -3 16 2 26 7 12 7 20 0 24 -15 9 -12 25 5 25 8 0 15
3 16 8 0 4 2 17 5 29 2 12 -1 25 -6 28 -6 3 -10 11 -10 16 0 6 4 8 9 4 6 -3 8
3 6 15 -2 11 1 22 6 25 5 4 6 12 2 18 -4 7 -8 32 -8 57 -1 25 -7 56 -15 70
-11 22 -11 23 1 13 12 -10 15 -6 15 23 0 18 -4 34 -9 34 -4 0 -6 4 -2 9 3 5 1
12 -5 16 -6 4 -8 10 -5 15 3 5 1 11 -5 15 -16 10 -12 28 5 22 8 -4 17 -1 21 5
4 7 3 8 -4 4 -7 -4 -12 -3 -12 3 0 5 5 13 10 16 13 8 13 25 -1 25 -5 0 -8 -4
-5 -8z m-18 -83 c1 -5 2 -10 4 -11 2 -3 5 -17 14 -55 3 -16 1 -20 -10 -16 -19
7 -15 -27 4 -42 10 -8 9 -11 -7 -11 -11 0 -18 4 -15 7 2 4 0 10 -6 14 -7 4 -7
12 0 26 7 13 7 25 0 38 -7 14 -7 22 0 26 8 5 8 11 1 19 -6 7 -8 16 -4 19 7 8
17 0 19 -14z m10 -195 c-21 -15 -20 -28 1 -20 10 4 14 4 10 0 -4 -4 -2 -13 4
-21 6 -7 10 -13 8 -14 -40 -9 -72 2 -49 16 6 4 8 11 5 16 -11 17 -14 50 -4 44
5 -4 9 -1 9 6 0 8 4 8 16 -2 14 -12 14 -14 0 -25z m-9 -98 c-3 -8 1 -17 9 -20
17 -7 12 -51 -6 -51 -7 0 -14 7 -16 15 -2 8 -5 25 -8 38 -3 13 -1 20 5 17 5
-4 9 -1 9 4 0 6 3 11 6 11 3 0 4 -6 1 -14z"/>
<path d="M26 2291 c-3 -4 1 -17 10 -27 14 -18 15 -18 5 2 -6 12 -7 24 -4 28 3
3 4 6 0 6 -3 0 -8 -4 -11 -9z"/>
<path d="M25 2130 c-3 -6 1 -7 9 -4 18 7 21 14 7 14 -6 0 -13 -4 -16 -10z"/>
<path d="M26 2082 c-2 -4 4 -8 14 -8 10 0 16 4 14 8 -3 4 -9 8 -14 8 -5 0 -11
-4 -14 -8z"/>
<path d="M27 1994 c6 -15 23 -19 23 -5 0 5 -7 11 -14 14 -10 4 -13 1 -9 -9z"/>
<path d="M4269 2333 c-13 -16 -12 -17 4 -4 9 7 17 15 17 17 0 8 -8 3 -21 -13z"/>
<path d="M4293 2305 c0 -8 4 -12 9 -9 5 3 6 10 3 15 -9 13 -12 11 -12 -6z"/>
<path d="M4293 2155 c0 -8 4 -12 9 -9 5 3 6 10 3 15 -9 13 -12 11 -12 -6z"/>
<path d="M4274 2123 c16 -20 36 -23 36 -6 0 4 -3 3 -7 0 -3 -4 -16 1 -27 10
-21 18 -21 18 -2 -4z"/>
<path d="M5 1899 c-4 -6 -5 -12 -2 -15 2 -3 7 2 10 11 7 17 1 20 -8 4z"/>
<path d="M33 1803 c0 -9 4 -10 14 -2 7 6 13 12 13 14 0 1 -6 2 -13 2 -8 0 -14
-6 -14 -14z"/>
<path d="M4196 1588 c3 -4 9 -8 15 -8 5 0 9 4 9 8 0 5 -7 9 -15 9 -8 0 -12 -4
-9 -9z"/>
<path d="M4190 1550 c0 -5 7 -7 15 -4 8 4 15 8 15 10 0 2 -7 4 -15 4 -8 0 -15
-4 -15 -10z"/>
<path d="M130 1510 c0 -5 5 -10 11 -10 5 0 7 5 4 10 -3 6 -8 10 -11 10 -2 0
-4 -4 -4 -10z"/>
<path d="M90 1484 c0 -2 9 -8 20 -14 11 -6 20 -7 20 -2 0 6 -9 12 -20 15 -11
3 -20 3 -20 1z"/>
<path d="M4096 1313 c-6 -14 -5 -15 5 -6 7 7 10 15 7 18 -3 3 -9 -2 -12 -12z"/>
<path d="M4126 1313 c-6 -14 -5 -15 5 -6 7 7 10 15 7 18 -3 3 -9 -2 -12 -12z"/>
<path d="M4005 1201 c-3 -6 0 -8 9 -5 8 3 16 -1 19 -10 4 -14 5 -14 3 0 -1 20
-21 30 -31 15z"/>
<path d="M4041 1163 c-18 -19 -10 -25 12 -8 10 7 15 15 10 18 -4 3 -14 -2 -22
-10z"/>
<path d="M373 1044 c4 -7 -4 -19 -18 -28 -14 -9 -25 -22 -25 -29 0 -6 5 -4 11
6 6 9 14 15 20 12 5 -4 9 -1 9 6 0 9 3 9 14 0 11 -10 14 -9 12 4 -1 8 -8 21
-16 28 -8 7 -10 8 -7 1z"/>
<path d="M350 988 c0 -4 7 -8 15 -8 8 0 15 4 15 8 0 5 -7 9 -15 9 -8 0 -15 -4
-15 -9z"/>
<path d="M3850 949 c0 -5 5 -7 10 -4 6 3 10 8 10 11 0 2 -4 4 -10 4 -5 0 -10
-5 -10 -11z"/>
<path d="M980 351 c0 -6 4 -13 10 -16 6 -3 7 1 4 9 -7 18 -14 21 -14 7z"/>
<path d="M2970 198 c-10 -21 -10 -21 3 -6 11 14 16 15 27 5 12 -10 12 -9 1 6
-17 22 -18 22 -31 -5z"/>
<path d="M2942 190 c0 -14 2 -19 5 -12 2 6 2 18 0 25 -3 6 -5 1 -5 -13z"/>
<path d="M2070 66 c0 -2 8 -10 18 -17 15 -13 16 -12 3 4 -13 16 -21 21 -21 13z"/>
<path d="M2195 60 c-3 -5 -3 -10 1 -10 4 0 -1 -9 -10 -19 -14 -15 -15 -21 -4
-27 7 -4 10 -4 6 1 -4 4 -2 15 4 23 12 13 20 42 13 42 -2 0 -7 -4 -10 -10z"/>
<path d="M2150 48 c0 -10 17 -10 24 0 3 5 -1 9 -9 9 -8 0 -15 -4 -15 -9z"/>
<path d="M2345 50 c-3 -6 1 -7 9 -4 18 7 21 14 7 14 -6 0 -13 -4 -16 -10z"/>
<path d="M1884 28 c-12 -14 -13 -18 -3 -10 9 6 18 10 21 7 2 -3 5 2 5 10 0 19
0 19 -23 -7z"/>
<path d="M2093 15 c0 -8 4 -12 9 -9 5 3 6 10 3 15 -9 13 -12 11 -12 -6z"/>
<path d="M2133 15 c0 -8 4 -12 9 -9 5 3 6 10 3 15 -9 13 -12 11 -12 -6z"/>
<path d="M2215 21 c-3 -5 -2 -12 3 -15 5 -3 9 1 9 9 0 17 -3 19 -12 6z"/>
<path d="M1956 8 c3 -5 10 -6 15 -3 13 9 11 12 -6 12 -8 0 -12 -4 -9 -9z"/>
<path d="M2266 8 c3 -5 10 -6 15 -3 13 9 11 12 -6 12 -8 0 -12 -4 -9 -9z"/>
</g>
</svg>
