<?xml version="1.0" standalone="no"?>
<!DOCTYPE svg PUBLIC "-//W3C//DTD SVG 20010904//EN"
 "http://www.w3.org/TR/2001/REC-SVG-20010904/DTD/svg10.dtd">
<svg version="1.0" xmlns="http://www.w3.org/2000/svg"
 width="978.000000pt" height="978.000000pt" viewBox="0 0 978.000000 978.000000"
 preserveAspectRatio="xMidYMid meet">
<metadata>
Created by potrace 1.11, written by Peter Selinger 2001-2013
</metadata>
<g transform="translate(0.000000,978.000000) scale(0.100000,-0.100000)"
fill="#000000" stroke="none">
<path d="M4868 9636 c-2 -2 -55 -6 -118 -9 -233 -12 -451 -61 -690 -157 -184
-73 -339 -167 -670 -409 -151 -110 -302 -219 -335 -243 -32 -24 -112 -81 -176
-128 -64 -47 -161 -117 -215 -157 -54 -39 -146 -106 -204 -148 -58 -42 -114
-83 -125 -91 -11 -8 -198 -144 -415 -302 -218 -158 -407 -295 -420 -305 -14
-10 -91 -66 -172 -125 -80 -59 -156 -114 -168 -122 -205 -140 -386 -285 -501
-399 -172 -173 -283 -318 -387 -511 -131 -242 -223 -533 -248 -785 -3 -33 -8
-71 -10 -85 -9 -54 -3 -352 9 -430 3 -19 9 -57 12 -85 4 -27 11 -66 15 -85 5
-19 11 -48 14 -63 3 -15 12 -54 22 -85 9 -31 17 -61 18 -67 3 -11 184 -570
221 -680 25 -74 80 -245 270 -830 219 -676 237 -730 255 -785 10 -30 64 -197
120 -370 191 -591 220 -673 289 -815 209 -427 537 -767 951 -982 165 -86 380
-166 509 -190 14 -2 27 -6 31 -8 11 -7 184 -34 265 -42 105 -10 3682 -10 3760
0 123 16 142 19 230 38 50 11 101 22 115 25 70 14 279 93 385 145 491 238 865
634 1073 1135 30 72 162 474 554 1684 28 85 75 229 105 320 30 91 56 170 57
175 2 10 139 432 196 605 199 602 251 786 265 940 3 30 7 71 10 90 6 38 6 325
1 375 -33 302 -93 515 -216 770 -158 326 -378 590 -672 807 -62 46 -147 108
-188 138 -41 30 -79 58 -85 62 -5 5 -93 68 -195 142 -102 74 -203 148 -225
164 -226 165 -964 700 -981 712 -13 8 -244 177 -516 375 -271 197 -538 389
-593 426 -215 143 -449 244 -705 305 -85 20 -86 20 -150 29 -30 4 -64 9 -75
11 -11 3 -60 7 -110 9 -49 3 -111 7 -137 9 -25 3 -48 3 -50 2z"/>
</g>
</svg>
